<svg width="24" height="25" viewBox="0 0 24 25" fill="none" xmlns="http://www.w3.org/2000/svg">
<path d="M2 7.43066L10.1649 13.1461C10.8261 13.6089 11.1567 13.8403 11.5163 13.93C11.8339 14.0091 12.1661 14.0091 12.4837 13.93C12.8433 13.8403 13.1739 13.6089 13.8351 13.1461L22 7.43066M6.8 20.4307H17.2C18.8802 20.4307 19.7202 20.4307 20.362 20.1037C20.9265 19.8161 21.3854 19.3571 21.673 18.7926C22 18.1509 22 17.3108 22 15.6307V9.23066C22 7.55051 22 6.71043 21.673 6.06869C21.3854 5.50421 20.9265 5.04526 20.362 4.75764C19.7202 4.43066 18.8802 4.43066 17.2 4.43066H6.8C5.11984 4.43066 4.27976 4.43066 3.63803 4.75764C3.07354 5.04526 2.6146 5.50421 2.32698 6.06869C2 6.71043 2 7.55051 2 9.23066V15.6307C2 17.3108 2 18.1509 2.32698 18.7926C2.6146 19.3571 3.07354 19.8161 3.63803 20.1037C4.27976 20.4307 5.11984 20.4307 6.8 20.4307Z" stroke="#A66DFF" stroke-width="2" stroke-linecap="round" stroke-linejoin="round"/>
</svg>
