<svg width="25" height="25" viewBox="0 0 25 25" fill="none" xmlns="http://www.w3.org/2000/svg">
<path d="M6.59436 11.6595C6.53221 11.2589 6.49996 10.8485 6.49996 10.4307C6.49996 6.01239 10.1052 2.43066 14.5526 2.43066C18.9999 2.43066 22.6052 6.01239 22.6052 10.4307C22.6052 11.4287 22.4213 12.3841 22.0852 13.2652C22.0154 13.4482 21.9804 13.5396 21.9646 13.6111C21.9489 13.6818 21.9428 13.7316 21.9411 13.8041C21.9394 13.8773 21.9493 13.9578 21.9692 14.119L22.3717 17.3892C22.4153 17.7432 22.4371 17.9202 22.3782 18.0489C22.3266 18.1616 22.235 18.2512 22.1211 18.3002C21.9911 18.3561 21.8146 18.3302 21.4617 18.2785L18.2765 17.8116C18.1101 17.7872 18.027 17.775 17.9512 17.7754C17.8763 17.7759 17.8245 17.7814 17.7511 17.7968C17.677 17.8124 17.5823 17.8479 17.393 17.9188C16.5097 18.2496 15.5524 18.4307 14.5526 18.4307C14.1344 18.4307 13.7237 18.399 13.3227 18.3379M8.13158 22.4307C11.0965 22.4307 13.5 19.9682 13.5 16.9307C13.5 13.8931 11.0965 11.4307 8.13158 11.4307C5.16668 11.4307 2.76316 13.8931 2.76316 16.9307C2.76316 17.5413 2.86028 18.1286 3.03955 18.6774C3.11533 18.9094 3.15322 19.0254 3.16566 19.1046C3.17864 19.1873 3.18091 19.2338 3.17608 19.3174C3.17145 19.3975 3.15141 19.488 3.11134 19.669L2.5 22.4307L5.4948 22.0217C5.65827 21.9993 5.74 21.9882 5.81137 21.9887C5.88652 21.9892 5.92641 21.9932 6.00011 22.0079C6.0701 22.0219 6.17416 22.0586 6.38227 22.1321C6.93059 22.3256 7.51911 22.4307 8.13158 22.4307Z" stroke="#D0F500" stroke-width="2" stroke-linecap="round" stroke-linejoin="round"/>
</svg>
