<svg width="25" height="25" viewBox="0 0 25 25" fill="none" xmlns="http://www.w3.org/2000/svg">
<path d="M8.88028 9.28402C9.57627 10.7336 10.5251 12.0923 11.7266 13.2939C12.9282 14.4954 14.2869 15.4442 15.7365 16.1402C15.8612 16.2001 15.9235 16.23 16.0024 16.253C16.2828 16.3347 16.627 16.276 16.8644 16.106C16.9313 16.0582 16.9884 16.001 17.1027 15.8867C17.4523 15.5371 17.6271 15.3623 17.8029 15.248C18.4658 14.817 19.3204 14.817 19.9833 15.248C20.1591 15.3623 20.3339 15.5371 20.6835 15.8867L20.8783 16.0816C21.4098 16.613 21.6755 16.8788 21.8198 17.1641C22.1069 17.7317 22.1069 18.402 21.8198 18.9695C21.6755 19.2549 21.4098 19.5206 20.8783 20.0521L20.7207 20.2097C20.1911 20.7393 19.9263 21.0041 19.5662 21.2064C19.1667 21.4308 18.5462 21.5922 18.088 21.5908C17.6751 21.5896 17.3928 21.5095 16.8284 21.3493C13.795 20.4883 10.9326 18.8638 8.54466 16.4758C6.15668 14.0879 4.53221 11.2255 3.67124 8.1921C3.51103 7.62765 3.43092 7.34543 3.4297 6.93248C3.42833 6.47426 3.58969 5.85377 3.81411 5.45426C4.01636 5.09423 4.28117 4.82942 4.8108 4.2998L4.96843 4.14216C5.49987 3.61072 5.7656 3.345 6.05098 3.20065C6.61854 2.91358 7.2888 2.91358 7.85636 3.20065C8.14174 3.345 8.40747 3.61072 8.93891 4.14216L9.13378 4.33703C9.48338 4.68664 9.65819 4.86144 9.77247 5.03722C10.2035 5.70011 10.2035 6.55469 9.77247 7.21758C9.65819 7.39336 9.48338 7.56816 9.13378 7.91777C9.01947 8.03208 8.96231 8.08924 8.91447 8.15605C8.74446 8.39348 8.68576 8.73774 8.76748 9.01809C8.79048 9.09698 8.82041 9.15933 8.88028 9.28402Z" stroke="#A66DFF" stroke-width="2" stroke-linecap="round" stroke-linejoin="round"/>
</svg>
