<svg width="665" height="395" viewBox="0 0 665 395" fill="none" xmlns="http://www.w3.org/2000/svg">
<path d="M600.329 353.001C597.106 348.973 594.689 344.423 592.651 339.73C591.655 337.408 590.707 334.991 589.807 332.621C589.38 331.483 588.906 330.393 588.575 329.256C588.195 328.071 588.053 327.455 588.622 326.317C588.622 325.512 588.954 325.18 589.57 325.275C590.091 325.132 590.423 325.369 590.613 325.986C591.087 325.938 591.56 325.843 591.987 325.796C589.143 317.217 587.295 308.354 586.489 299.396C586.11 295.036 585.968 290.628 586.063 286.22C586.11 284.182 586.205 282.144 586.394 280.059C586.442 279.253 586.347 276.978 586.821 276.314C587.342 276.172 587.816 276.03 588.338 275.935C589.191 275.224 589.854 275.224 590.281 275.982C590.802 276.409 591.134 277.167 591.466 277.736C600.139 292.145 605.922 308.402 608.718 324.943C610.329 334.469 610.946 344.091 610.519 353.76C610.472 354.66 611.893 354.66 611.941 353.76C612.699 334.564 609.524 315.274 602.556 297.358C600.803 292.903 598.859 288.542 596.679 284.277C595.684 282.286 594.594 280.343 593.504 278.447C592.603 276.883 591.703 274.987 590.186 273.944C587.247 271.954 585.541 274.798 585.209 277.404C584.593 282.334 584.498 287.358 584.641 292.334C584.972 303.851 586.963 315.227 590.565 326.128C590.802 326.886 591.987 326.791 591.94 325.938C591.94 324.042 589.807 323.237 588.195 324.042C585.352 325.417 586.963 329.351 587.721 331.436C590.66 339.399 593.835 347.266 599.191 353.949C599.902 354.755 600.898 353.712 600.329 353.001Z" fill="white"/>
<path d="M608.671 317.549C609.05 311.245 609.856 304.989 611.23 298.78C611.894 295.889 612.605 292.998 613.505 290.154C613.932 288.732 614.406 287.31 614.88 285.936C615.117 285.225 615.354 284.514 615.638 283.85C615.733 283.566 615.828 283.282 615.97 282.997C616.159 282.002 616.823 281.433 617.913 281.243C617.818 282.049 619.098 282.191 619.288 281.433C620.235 278.305 627.914 258.162 632.606 261.621C633.98 262.617 634.36 264.939 634.597 266.503C634.976 268.683 635.307 270.911 635.544 273.091C635.971 276.836 636.255 280.58 636.35 284.372C636.777 299.775 634.454 315.274 629.525 329.919C626.681 338.309 622.984 346.319 618.529 353.949C618.055 354.755 619.288 355.466 619.762 354.66C628.719 339.399 634.454 322.431 636.729 304.942C637.867 296.126 638.151 287.215 637.488 278.352C637.156 274.134 636.682 269.916 635.924 265.745C635.497 263.47 634.454 260.105 631.753 259.678C628.198 259.109 625.449 264.987 624.027 267.356C621.42 271.669 619.43 276.267 617.96 281.054C618.434 281.101 618.908 281.196 619.335 281.243C619.619 278.968 616.776 278.826 615.638 280.296C614.785 281.386 614.406 282.997 613.979 284.277C613.173 286.504 612.462 288.78 611.799 291.055C609.287 299.681 607.818 308.544 607.296 317.502C607.201 318.45 608.623 318.45 608.671 317.549Z" fill="white"/>
<path d="M586.394 275.793C596.727 299.918 603.22 325.559 605.59 351.675C605.685 352.575 607.107 352.575 607.012 351.675C604.595 325.275 598.054 299.444 587.627 275.035C587.247 274.229 586.015 274.987 586.394 275.793Z" fill="white"/>
<path d="M586.11 307.027C591.039 309.492 595.589 312.572 599.713 316.175C600.376 316.791 601.419 315.795 600.708 315.179C596.442 311.482 591.845 308.354 586.774 305.795C586.015 305.416 585.257 306.648 586.11 307.027Z" fill="white"/>
<path d="M599.286 293.14C597.959 295.747 596.964 298.496 596.347 301.387C596.158 302.287 597.532 302.666 597.722 301.766C598.338 299.017 599.239 296.363 600.518 293.851C600.945 293.045 599.713 292.334 599.286 293.14Z" fill="white"/>
<path d="M630.283 262.712C627.203 290.249 623.838 318.687 610.424 343.427C609.998 344.233 611.23 344.944 611.657 344.138C625.212 319.161 628.577 290.533 631.705 262.712C631.8 261.811 630.378 261.811 630.283 262.712Z" fill="white"/>
<path d="M612.557 289.68C616.349 298.591 619.145 307.833 620.993 317.312C621.183 318.213 622.558 317.833 622.368 316.933C620.472 307.311 617.581 297.974 613.789 288.969C613.41 288.116 612.225 288.827 612.557 289.68Z" fill="white"/>
<path d="M626.824 296.837C630.378 292.334 633.933 287.832 637.488 283.376C638.057 282.665 637.061 281.67 636.492 282.381C632.938 286.884 629.383 291.386 625.828 295.842C625.26 296.505 626.255 297.548 626.824 296.837Z" fill="white"/>
<path d="M37.83 346.698C34.7492 343.38 31.6211 339.968 29.1091 336.176C27.9242 334.327 26.8341 332.432 25.9809 330.394C25.507 329.256 23.2793 323.189 26.3601 324.422C27.1184 324.706 27.4502 323.711 27.071 323.237C23.9429 319.255 21.8575 314.611 20.0564 309.918C18.3501 305.463 16.6913 300.96 15.1272 296.458C13.4209 291.529 11.9516 286.457 11.3829 281.291C10.9563 277.215 10.5297 271.622 13.4683 268.257C17.7814 263.375 22.1418 271.433 24.1799 274.466C26.9289 278.542 29.6304 282.713 32.2372 286.884C37.4034 295.368 42.0957 304.183 45.5556 313.568C49.4895 324.279 51.6697 335.607 51.1484 347.03C51.101 347.93 52.5229 347.93 52.5702 347.03C53.613 323.9 43.7071 302.335 31.6211 283.187C28.6351 278.495 25.6492 273.755 22.3788 269.252C20.5304 266.74 17.5918 264.134 14.274 265.792C11.2407 267.262 10.1032 271.196 9.8188 274.276C9.29744 279.869 10.3876 285.557 11.9042 290.912C13.6105 296.979 15.9329 302.856 18.1131 308.733C20.1512 314.231 22.4262 319.587 26.0757 324.232C26.3127 323.853 26.5497 323.426 26.7867 323.047C25.5544 322.573 24.4643 322.715 23.4215 323.474C23.2319 323.616 23.0424 323.853 23.0898 324.09C24.1325 333.664 30.6258 341.01 36.8821 347.741C37.4508 348.404 38.4462 347.409 37.83 346.698Z" fill="white"/>
<path d="M41.7163 301.624C40.247 288.353 42.0007 275.035 46.8351 262.569C46.456 262.664 46.0294 262.759 45.6502 262.901C47.1195 264.228 48.1148 265.745 48.6836 267.641C48.8732 268.304 49.8685 268.352 50.0581 267.641C53.281 256.455 57.9733 245.791 64.1348 235.885C63.7082 235.838 63.2816 235.79 62.8551 235.696C66.552 245.127 68.8744 255.081 69.6327 265.224C70.2963 274.324 70.5333 284.798 64.9879 292.524C64.7035 292.903 64.9879 293.472 65.4145 293.566C69.6801 294.562 68.4004 301.292 68.0213 304.325C67.4525 309.349 66.5994 314.373 65.5093 319.303C63.4238 328.829 60.3905 338.166 56.5514 347.124C56.1722 347.977 57.4045 348.688 57.7837 347.835C62.2863 337.408 65.6515 326.507 67.7843 315.369C68.7322 310.25 69.8223 304.847 69.9171 299.633C69.9645 296.647 69.2062 292.903 65.841 292.145C65.9832 292.476 66.1254 292.856 66.2676 293.187C71.813 285.462 71.7182 275.129 71.1494 266.029C70.4859 255.46 68.1161 245.08 64.277 235.269C64.04 234.7 63.329 234.558 62.9973 235.079C56.7883 245.08 52.0487 255.839 48.7784 267.167C49.2523 267.167 49.6789 267.167 50.1529 267.167C49.4893 265.034 48.3992 263.328 46.7403 261.811C46.3138 261.432 45.745 261.621 45.5554 262.143C40.6736 274.703 38.92 288.211 40.3892 301.576C40.3892 302.524 41.8111 302.524 41.7163 301.624Z" fill="white"/>
<path d="M13.9892 268.02C20.5773 281.054 27.3076 294.041 33.6113 307.217C39.7728 320.203 45.2234 333.616 48.1619 347.741C48.3515 348.641 49.726 348.262 49.5364 347.361C46.5979 333.379 41.2895 320.156 35.1754 307.264C28.8243 293.804 21.9044 280.58 15.1741 267.262C14.795 266.503 13.5627 267.214 13.9892 268.02Z" fill="white"/>
<path d="M63.1394 237.686C62.1441 251.763 57.7836 265.224 54.5607 278.874C51.3378 292.524 49.1101 306.411 47.8778 320.393C47.783 321.293 49.2049 321.293 49.2997 320.393C50.5794 305.937 52.9492 291.576 56.3618 277.499C59.5847 264.323 63.566 251.289 64.5613 237.686C64.6087 236.738 63.1868 236.738 63.1394 237.686Z" fill="white"/>
<path d="M13.231 295.178C20.3878 297.595 26.9285 301.292 32.7582 306.126C33.4692 306.695 34.4645 305.7 33.7536 305.131C27.7342 300.155 21.004 296.363 13.6102 293.803C12.7096 293.472 12.3305 294.846 13.231 295.178Z" fill="white"/>
<path d="M45.2235 263.707C46.835 272.286 49.2048 280.722 52.2856 288.874C52.6173 289.727 53.9918 289.348 53.6601 288.495C50.5793 280.296 48.2569 271.906 46.598 263.328C46.4084 262.427 45.0813 262.806 45.2235 263.707Z" fill="white"/>
<path d="M50.3424 323.521C55.4612 316.791 60.7222 310.013 68.2108 305.795C69.0165 305.368 68.3056 304.136 67.4999 304.563C59.8217 308.923 54.3711 315.89 49.1101 322.81C48.5887 323.521 49.821 324.232 50.3424 323.521Z" fill="white"/>
<path d="M543.264 355.561C583.124 355.561 623.032 355.561 662.892 355.561C664.74 355.561 664.74 352.717 662.892 352.717C623.032 352.717 583.124 352.717 543.264 352.717C541.415 352.717 541.415 355.561 543.264 355.561Z" fill="white"/>
<path d="M110.299 346.082C79.0173 346.082 47.7358 346.082 16.4542 346.082C14.6058 346.082 14.6058 348.925 16.4542 348.925C47.7358 348.925 79.0173 348.925 110.299 348.925C112.1 348.925 112.1 346.082 110.299 346.082Z" fill="white"/>
<path d="M428.896 378.69C472.122 378.69 515.347 378.69 558.573 378.69C570.896 378.69 583.171 378.69 595.494 378.69C597.343 378.69 597.343 375.846 595.494 375.846C552.269 375.846 509.044 375.846 465.818 375.846C453.495 375.846 441.219 375.846 428.896 375.846C427.095 375.846 427.048 378.69 428.896 378.69Z" fill="white"/>
<path d="M531.225 356.319C393.302 353.57 255.379 350.821 117.456 348.072C92.7623 347.598 75.5101 323.474 82.9987 299.965L168.17 31.9864C173.004 16.7722 187.128 6.34503 203.101 6.25024C330.739 5.34971 458.377 4.40179 586.015 3.50126C609.334 3.31167 627.013 24.5926 622.511 47.485L568.147 326.46C564.782 344.091 549.189 356.698 531.225 356.319Z" fill="#A66DFF" stroke="white" stroke-width="6"/>
<path d="M528.571 353.997C390.648 351.39 252.725 348.83 114.802 346.224C90.108 345.75 72.8558 322.999 80.3444 300.818L165.516 47.864C170.35 33.5029 184.474 23.6919 200.447 23.5497C328.085 22.6966 455.723 21.796 583.361 20.9429C606.68 20.8007 624.359 40.8493 619.856 62.462L565.493 325.843C562.128 342.432 546.534 354.328 528.571 353.997Z" fill="black" stroke="white" stroke-width="6"/>
<path d="M563.929 332.905C559.378 342.906 550.61 350.442 540.041 353.381C539.14 353.618 539.519 354.992 540.42 354.755C551.321 351.722 560.469 343.901 565.161 333.616C565.493 332.811 564.308 332.052 563.929 332.905Z" fill="white"/>
<path d="M206.75 16.7246C205.328 16.5825 204.807 15.0658 205.186 13.8335C205.707 12.2694 207.224 11.9376 208.646 12.6486C209.641 13.1699 210.163 14.4022 209.736 15.4923C209.262 16.6772 207.888 17.0564 206.75 16.6299C205.897 16.2981 205.518 17.6726 206.371 18.0043C208.219 18.7153 210.494 17.7674 211.158 15.8241C211.822 13.7387 210.494 11.7006 208.504 11.0845C206.276 10.4209 204.333 11.4637 203.764 13.7861C203.29 15.9189 204.617 17.9096 206.75 18.1465C207.651 18.2413 207.651 16.8194 206.75 16.7246Z" fill="white"/>
<path d="M205.091 15.5872C205.66 17.0565 207.746 17.5305 208.978 16.63C209.784 16.0138 210.163 14.8289 209.784 13.7862C209.357 12.6487 208.125 11.9851 207.035 12.1747C205.518 12.4591 204.523 14.2128 205.091 15.5872Z" fill="black"/>
<path d="M222.77 16.2984C221.348 16.1562 220.827 14.6395 221.206 13.4072C221.727 11.8431 223.244 11.5113 224.666 12.2223C225.661 12.7437 226.183 13.976 225.756 15.0661C225.282 16.251 223.908 16.6301 222.77 16.2036C221.917 15.8718 221.538 17.2463 222.391 17.5781C224.239 18.289 226.514 17.3411 227.178 15.3978C227.842 13.3124 226.514 11.2744 224.524 10.6582C222.296 9.99467 220.353 11.0374 219.784 13.3598C219.31 15.4926 220.637 17.4833 222.77 17.7203C223.671 17.8151 223.671 16.3932 222.77 16.2984Z" fill="white"/>
<path fill-rule="evenodd" clip-rule="evenodd" d="M221.111 15.161C221.68 16.6303 223.765 17.1042 224.998 16.2037C225.803 15.5875 226.183 14.4026 225.803 13.3599C225.377 12.2224 224.145 11.5589 223.054 11.7484C221.538 12.0328 220.542 13.7865 221.111 15.161Z" stroke="white"/>
<path d="M205.802 12.6486C206.466 14.1179 207.224 15.5398 208.125 16.9143C208.599 17.6726 209.831 16.9617 209.357 16.2034C208.504 14.8289 207.746 13.407 207.035 11.9377C206.655 11.132 205.423 11.8429 205.802 12.6486Z" fill="white"/>
<path d="M205.944 16.9143C206.608 16.3456 207.224 15.7294 207.888 15.1607C208.456 14.6393 209.025 14.0232 209.736 13.644C210.542 13.2174 209.831 11.9851 209.025 12.4117C208.314 12.7909 207.745 13.407 207.129 13.9758C206.418 14.6393 205.66 15.3029 204.949 15.9664C204.286 16.5352 205.281 17.5305 205.944 16.9143Z" fill="white"/>
<path d="M381.974 48.9069C377.756 62.4622 373.49 76.0649 369.272 89.6203C366.665 98.0568 372.874 106.588 381.69 106.73C440.508 107.441 499.28 108.105 558.099 108.816C564.544 108.911 570.09 104.266 571.227 97.9146C573.739 83.5062 576.299 69.0977 578.811 54.6892C580.233 46.6319 574.024 39.238 565.824 39.238C508.712 39.3802 451.599 39.5224 394.534 39.6646C388.799 39.6646 383.68 43.4089 381.974 48.9069Z" fill="black" stroke="#D0F500" stroke-width="3"/>
<path d="M156.273 237.876C148.073 261.432 139.874 284.988 131.674 308.544C126.603 323.142 138.642 338.024 155.704 338.214C269.55 339.399 383.443 340.631 497.289 341.816C509.802 341.958 520.561 333.948 522.694 322.905C527.623 297.927 532.505 272.902 537.434 247.924C540.183 233.895 528.144 221.098 512.266 221.098C401.691 221.335 291.115 221.572 180.54 221.809C169.402 221.856 159.591 228.349 156.273 237.876Z" fill="black" stroke="#D0F500" stroke-width="3"/>
<path d="M399.795 130.097C392.164 152.942 384.534 175.787 376.903 198.632C376.618 199.485 377.993 199.864 378.277 199.011C385.908 176.166 393.539 153.321 401.17 130.476C401.454 129.575 400.08 129.196 399.795 130.097Z" fill="#A66DFF"/>
<path d="M400.696 130.239C420.507 129.196 440.414 127.585 460.273 127.585C480.037 127.585 499.754 129.291 519.423 130.997C520.324 131.092 520.324 129.67 519.423 129.575C499.754 127.869 480.037 126.21 460.273 126.163C440.414 126.163 420.507 127.774 400.696 128.817C399.795 128.864 399.748 130.286 400.696 130.239Z" fill="#A66DFF"/>
<path d="M519.186 130.95C513.878 153.605 508.522 176.213 503.214 198.869C503.024 199.769 504.399 200.148 504.588 199.248C509.897 176.592 515.253 153.984 520.561 131.329C520.751 130.476 519.376 130.097 519.186 130.95Z" fill="#A66DFF"/>
<path d="M377.756 201.096C410.27 199.343 442.831 198.916 475.392 199.911C484.682 200.196 493.924 200.575 503.214 201.096C504.114 201.144 504.114 199.722 503.214 199.674C470.7 197.873 438.139 197.494 405.577 198.49C396.288 198.774 387.045 199.153 377.756 199.674C376.855 199.722 376.808 201.144 377.756 201.096Z" fill="#A66DFF"/>
<path d="M440.888 198.679C461.173 188.11 484.35 186.546 506.769 185.171C507.669 185.124 507.669 183.702 506.769 183.749C484.113 185.171 460.699 186.783 440.177 197.447C439.324 197.873 440.035 199.106 440.888 198.679Z" fill="#A66DFF"/>
<path d="M473.259 153.558C475.487 164.412 476.624 175.455 476.672 186.546C476.672 187.446 478.094 187.446 478.094 186.546C477.999 175.313 476.861 164.175 474.634 153.179C474.444 152.278 473.07 152.657 473.259 153.558Z" fill="#A66DFF"/>
<path d="M472.738 153.321C469.847 157.539 467.003 161.805 464.112 166.023C464.539 166.165 465.013 166.26 465.439 166.402C465.202 162.137 466.292 158.155 468.709 154.648C469.231 153.89 467.999 153.179 467.477 153.937C464.918 157.634 463.733 161.947 463.97 166.402C464.017 167.113 464.87 167.35 465.297 166.782C468.188 162.563 471.032 158.298 473.923 154.079C474.492 153.274 473.26 152.563 472.738 153.321Z" fill="#A66DFF"/>
<path d="M467.951 152.942C466.34 152.231 464.728 151.899 462.974 151.994C461.932 152.041 457.713 153.321 458.33 151.757C458.567 151.141 459.894 150.335 460.415 149.909C461.41 149.103 462.453 148.344 463.543 147.728C465.96 146.354 468.662 145.69 471.411 146.117C472.312 146.259 472.691 144.885 471.79 144.742C466.292 143.889 460.557 146.875 457.003 150.999C456.055 152.089 456.197 153.605 457.761 154.079C458.614 154.316 459.562 153.985 460.368 153.795C462.69 153.274 464.965 153.084 467.24 154.079C468.046 154.553 468.757 153.321 467.951 152.942Z" fill="#A66DFF"/>
<path d="M472.691 144.647C474.492 140.382 478.047 137.253 482.454 135.926C482.217 135.547 481.981 135.121 481.744 134.741C480.132 136.827 479.184 139.102 478.852 141.709C478.758 142.609 480.179 142.609 480.274 141.709C480.559 139.481 481.412 137.49 482.739 135.737C483.118 135.215 482.786 134.315 482.028 134.552C477.099 136.021 473.26 139.529 471.269 144.268C470.985 145.121 472.359 145.5 472.691 144.647Z" fill="#A66DFF"/>
<path d="M479.895 142.562C483.592 140.429 487.952 140.382 491.697 142.42C491.697 141.993 491.697 141.614 491.697 141.187C488.711 142.609 485.867 144.316 483.165 146.211C482.407 146.733 483.118 147.965 483.876 147.444C486.578 145.548 489.422 143.842 492.408 142.42C492.882 142.183 492.834 141.424 492.408 141.187C488.189 138.865 483.308 138.912 479.184 141.33C478.378 141.804 479.089 143.036 479.895 142.562Z" fill="#A66DFF"/>
<path d="M482.644 147.538C485.725 149.245 488.711 152.041 487.857 155.928C488.284 155.88 488.711 155.833 489.137 155.738C487.146 152.562 483.734 150.761 479.99 150.904C479.089 150.951 479.089 152.373 479.99 152.325C483.26 152.183 486.199 153.7 487.905 156.449C488.189 156.923 489.09 156.923 489.184 156.259C490.132 151.757 487.004 148.297 483.307 146.259C482.549 145.88 481.838 147.112 482.644 147.538Z" fill="#A66DFF"/>
<path d="M478.757 152.089C480.938 163.464 481.743 174.981 481.127 186.546C481.08 187.446 482.502 187.446 482.549 186.546C483.165 174.886 482.36 163.179 480.132 151.709C479.942 150.809 478.568 151.188 478.757 152.089Z" fill="#A66DFF"/>
<path d="M477.193 174.412C478.758 174.602 480.227 174.318 481.649 173.701C482.502 173.322 481.744 172.09 480.938 172.469C479.753 173.038 478.473 173.18 477.193 172.99C476.293 172.848 476.293 174.27 477.193 174.412Z" fill="#A66DFF"/>
<path d="M383.917 181.711C391.69 182.185 399.558 182.327 407.284 183.228C411.075 183.655 414.725 184.792 418.469 185.361C422.119 185.882 425.674 185.361 429.323 184.697C445.296 181.901 461.363 183.418 477.335 185.124C478.236 185.219 478.236 183.797 477.335 183.702C461.884 182.043 446.196 180.432 430.745 182.991C426.384 183.702 422.261 184.555 417.853 183.797C414.298 183.181 410.886 182.233 407.331 181.806C399.606 180.906 391.738 180.763 383.965 180.289C383.017 180.195 383.017 181.617 383.917 181.711Z" fill="#A66DFF"/>
<path d="M475.535 164.601C475.724 165.407 476.53 165.597 477.288 165.454C478.757 165.217 480.274 164.696 481.696 164.27C482.597 164.033 482.217 162.658 481.317 162.895C480.464 163.132 479.611 163.369 478.757 163.559C478.378 163.653 477.952 163.748 477.573 163.89C477.383 163.938 477.193 163.985 477.004 164.033C476.672 163.985 476.672 164.033 476.909 164.175C476.719 163.322 475.345 163.701 475.535 164.601Z" fill="#A66DFF"/>
<path d="M415.483 146.496C410.791 144.979 416.905 136.922 420.176 140.524C421.361 141.804 421.313 144.031 420.223 145.358C418.991 146.875 416.858 147.112 415.199 146.164C414.393 145.69 413.682 146.923 414.488 147.396C416.905 148.771 420.176 148.25 421.692 145.832C423.067 143.605 422.688 140.145 420.27 138.77C415.009 135.832 408.706 145.832 415.152 147.918C416.005 148.155 416.384 146.78 415.483 146.496Z" fill="#A66DFF"/>
<path d="M525.064 135.073C540.373 135.879 555.539 137.68 570.611 140.524C571.512 140.713 571.891 139.339 570.991 139.149C555.824 136.258 540.515 134.41 525.064 133.604C524.163 133.604 524.163 135.026 525.064 135.073Z" fill="#A66DFF"/>
<path d="M524.827 139.197C539.425 140.761 554.07 142.42 568.621 144.174C569.521 144.268 569.521 142.846 568.621 142.752C554.023 140.998 539.425 139.339 524.827 137.775C523.926 137.68 523.926 139.102 524.827 139.197Z" fill="#A66DFF"/>
<path d="M524.353 143.462C533.169 144.932 542.032 145.88 550.942 146.164C551.843 146.211 551.843 144.79 550.942 144.742C542.174 144.41 533.405 143.557 524.732 142.088C523.831 141.946 523.452 143.32 524.353 143.462Z" fill="#A66DFF"/>
<path d="M519.044 169.009C531.036 170.716 543.074 172.137 555.113 173.275C556.014 173.37 556.014 171.948 555.113 171.853C543.169 170.716 531.273 169.294 519.424 167.635C518.523 167.493 518.144 168.867 519.044 169.009Z" fill="#A66DFF"/>
<path d="M518.144 173.085C527.67 174.744 537.197 176.118 546.771 177.256C547.671 177.351 547.671 175.929 546.771 175.834C537.292 174.744 527.907 173.369 518.523 171.711C517.622 171.521 517.243 172.895 518.144 173.085Z" fill="#A66DFF"/>
<path d="M517.148 179.104C529.092 181.474 541.131 183.086 553.264 183.844C554.165 183.891 554.165 182.469 553.264 182.422C541.273 181.616 529.329 180.052 517.527 177.73C516.627 177.54 516.248 178.915 517.148 179.104Z" fill="#A66DFF"/>
<path d="M176.796 240.103C198.598 241.194 220.495 240.056 242.298 239.724C264.1 239.392 285.855 239.298 307.657 239.345C351.404 239.44 395.103 240.246 438.85 241.241C463.496 241.81 488.095 242.473 512.741 243.089C513.641 243.137 513.641 241.715 512.741 241.668C469.041 240.53 425.295 239.345 381.548 238.634C337.801 237.923 294.102 237.591 250.355 238.16C225.851 238.445 201.252 239.914 176.796 238.634C175.848 238.634 175.848 240.056 176.796 240.103Z" fill="#D0F500"/>
<path d="M175.943 73.1737C178.786 73.6003 180.777 71.6571 186.417 67.4862C194.901 61.1825 196.702 60.9929 197.982 61.0877C198.598 61.1351 199.736 61.3247 205.091 65.3534C212.912 71.2305 213.386 73.0316 215.945 73.1737C220.59 73.3633 221.254 67.4862 226.799 66.9648C231.823 66.4909 233.387 71.0883 239.596 70.8513C244.383 70.7091 247.179 67.7706 247.606 68.3867C248.127 69.1925 243.625 75.4014 237.131 76.3967C232.344 77.1076 231.302 74.3113 226.657 74.9748C220.211 75.9227 218.979 81.7999 214.239 81.3733C211.443 81.0889 211.063 79.0035 206.229 75.6857C203.67 73.9321 199.214 70.8987 194.332 70.5195C185.375 69.856 180.73 78.5295 175.327 76.0175C172.72 74.8326 171.25 71.6097 171.582 71.2305C171.819 70.8513 173.478 72.7946 175.943 73.1737Z" fill="#A66DFF"/>
<path d="M397.994 48.8594C395.103 61.9882 391.548 74.9748 387.377 87.7717C387.093 88.6249 388.467 89.004 388.752 88.1509C392.923 75.3539 396.477 62.3673 399.369 49.2386C399.558 48.338 398.184 47.9589 397.994 48.8594Z" fill="#D0F500"/>
<path d="M388.231 88.862C393.112 89.4307 397.994 89.1937 402.923 89.099C408.042 88.9568 413.161 88.862 418.327 88.7198C428.565 88.4828 438.85 88.1984 449.087 87.9614C449.988 87.9614 449.988 86.5396 449.087 86.5396C438.85 86.7765 428.565 87.0609 418.327 87.2979C413.351 87.4401 408.374 87.5349 403.397 87.6771C398.326 87.8193 393.302 88.0562 388.231 87.4875C387.33 87.3453 387.33 88.7672 388.231 88.862Z" fill="#D0F500"/>
<path d="M405.862 62.0833C404.061 70.5198 402.544 79.0037 401.264 87.5351C401.122 88.4356 402.497 88.8148 402.639 87.9142C403.919 79.3829 405.435 70.899 407.236 62.4624C407.426 61.5619 406.051 61.1827 405.862 62.0833Z" fill="#D0F500"/>
<path d="M406.952 62.8414C409.464 62.9836 411.929 63.2206 414.393 63.6946C414.251 63.4102 414.062 63.1258 413.919 62.8414C411.692 70.8514 409.796 78.9562 408.232 87.1083C408.042 88.0089 409.417 88.388 409.606 87.4875C411.17 79.3353 413.066 71.2306 415.294 63.2206C415.389 62.8888 415.199 62.4149 414.82 62.3675C412.213 61.8935 409.654 61.6091 407 61.4669C406.004 61.3721 406.004 62.794 406.952 62.8414Z" fill="#D0F500"/>
<path d="M419.18 70.1405C418.469 75.9228 417.521 81.6104 416.337 87.2979C416.147 88.1985 417.521 88.5776 417.711 87.6771C418.943 81.8948 419.891 76.0176 420.602 70.1405C420.697 69.24 419.275 69.24 419.18 70.1405Z" fill="#D0F500"/>
<path d="M419.891 70.2351C422.545 70.1403 425.247 70.1877 427.901 70.3773C427.664 70.0929 427.427 69.7611 427.238 69.4767C426.195 75.1169 425.294 80.7571 424.536 86.4446C424.394 87.3451 425.816 87.3451 425.958 86.4446C426.716 80.8992 427.569 75.4013 428.612 69.8559C428.707 69.382 428.422 69.0028 427.949 68.9554C425.294 68.7658 422.593 68.7658 419.939 68.8132C418.943 68.8132 418.943 70.2351 419.891 70.2351Z" fill="#D0F500"/>
<path d="M436.48 57.2488C434.821 67.1546 432.878 77.0604 430.745 86.8715C430.555 87.772 431.93 88.1512 432.119 87.2506C434.252 77.4396 436.196 67.5338 437.854 57.628C438.044 56.7274 436.669 56.3483 436.48 57.2488Z" fill="#D0F500"/>
<path d="M437.617 56.5376C437.617 56.6324 437.617 56.6798 437.617 56.7746C437.617 57.1538 437.949 57.4855 438.328 57.4855C438.707 57.4855 439.039 57.1538 439.039 56.7746C439.039 56.6798 439.039 56.6324 439.039 56.5376C439.039 56.1584 438.707 55.8267 438.328 55.8267C437.949 55.8741 437.617 56.1584 437.617 56.5376Z" fill="#D0F500"/>
<path d="M437.949 57.7225C440.129 58.1965 442.215 58.4335 444.442 58.3861C444.206 58.1017 443.969 57.7699 443.779 57.4856C441.93 67.3914 440.224 77.3446 438.613 87.2978C438.471 88.1984 439.845 88.5775 439.987 87.677C441.599 77.7238 443.305 67.7706 445.153 57.8647C445.248 57.4382 444.964 56.9642 444.49 56.9642C442.404 56.9642 440.414 56.7746 438.376 56.3481C437.428 56.1585 437.049 57.4856 437.949 57.7225Z" fill="#D0F500"/>
<path d="M459.609 54.4995C475.724 54.31 491.791 54.4047 507.906 54.8313C508.807 54.8313 508.807 53.4094 507.906 53.4094C491.791 53.0303 475.724 52.9355 459.609 53.0777C458.709 53.0777 458.709 54.4995 459.609 54.4995Z" fill="#D0F500"/>
<path d="M460.7 60.2819C470.7 60.9455 480.748 60.8033 490.749 59.8554C491.649 59.7606 491.649 58.3387 490.749 58.4335C480.748 59.3814 470.7 59.5236 460.7 58.8601C459.799 58.8127 459.799 60.2345 460.7 60.2819Z" fill="#D0F500"/>
<path d="M458.519 67.4389C472.264 67.2019 486.009 67.4389 499.754 68.1498C500.654 68.1972 500.654 66.7753 499.754 66.7279C486.009 65.9696 472.264 65.7326 458.519 66.017C457.619 66.017 457.619 67.4389 458.519 67.4389Z" fill="#D0F500"/>
<path d="M532.268 89.4306C527.433 88.8145 525.111 83.9801 523.737 79.8566C522.457 75.9701 521.983 71.894 523.452 68.0075C526.012 61.1824 532.979 55.6845 539.993 54.1204C547.292 52.4615 554.686 56.348 558.194 62.8413C561.891 69.6664 560.611 78.4347 556.298 84.6436C550.989 92.2744 539.804 93.1275 532.031 89.0989C531.225 88.6723 530.514 89.9046 531.32 90.3312C538.761 94.1703 549.046 93.9807 555.35 87.9613C561.511 82.0842 563.502 71.6096 560.279 63.8366C557.198 56.4902 549.425 51.3714 541.368 52.4141C533.405 53.4568 525.395 59.5236 522.362 66.9648C520.324 72.0362 521.177 77.3446 523.168 82.2738C524.874 86.4447 527.576 90.2364 532.315 90.8525C533.168 90.9473 533.168 89.5254 532.268 89.4306Z" fill="#D0F500"/>
<path d="M534.259 56.0163C536.486 61.7512 538.524 67.581 540.467 73.4581C540.752 74.3112 542.126 73.9321 541.842 73.0789C539.899 67.2018 537.861 61.4194 535.633 55.6371C535.301 54.8314 533.927 55.1631 534.259 56.0163Z" fill="#D0F500"/>
<path d="M541.937 74.2638C547.53 70.3773 553.075 66.3487 558.478 62.2252C559.189 61.6564 558.478 60.4241 557.767 60.9929C552.317 65.1164 546.819 69.145 541.226 73.0315C540.467 73.5529 541.178 74.7852 541.937 74.2638Z" fill="#D0F500"/>
<path d="M541.7 74.3115C548.051 74.0271 554.307 72.9844 560.421 71.1833C561.274 70.9464 560.942 69.5719 560.042 69.8088C554.07 71.5625 547.956 72.6052 541.7 72.8422C540.799 72.937 540.799 74.3589 541.7 74.3115Z" fill="#D0F500"/>
<path d="M540.562 73.8375C536.771 78.7193 533.026 83.6011 529.235 88.4829C528.666 89.1938 529.898 89.9048 530.467 89.1938C534.259 84.312 538.003 79.4302 541.795 74.5484C542.363 73.8375 541.131 73.1265 540.562 73.8375Z" fill="#D0F500"/>
<path d="M177.744 237.686C176.559 237.354 177.27 235.79 177.791 235.269C178.36 234.7 179.782 234.748 180.54 234.748C181.915 234.7 183.289 234.748 184.711 234.7C187.555 234.7 190.399 234.653 193.242 234.653C198.93 234.605 204.617 234.605 210.305 234.558C221.538 234.511 232.723 234.416 243.956 234.368C266.564 234.226 289.125 234.131 311.733 234.084C356.759 233.942 401.739 233.942 446.765 234.179C459.088 234.274 471.458 234.274 483.782 234.795C489.896 235.032 496.01 235.411 502.124 235.98C505.157 236.264 508.238 236.596 511.271 236.975C512.267 237.117 513.262 237.212 514.257 237.402C515.063 237.544 515.537 237.402 515.821 238.16C516.58 239.961 514.163 241.81 512.693 241.904C511.793 241.952 511.793 243.374 512.693 243.326C515.869 243.089 518.096 239.866 516.911 236.833C516.817 236.596 516.675 236.359 516.438 236.359C493.829 232.994 470.937 232.994 448.139 232.852C424.584 232.71 401.075 232.662 377.519 232.615C330.312 232.615 283.058 232.804 235.852 233.041C222.581 233.136 209.31 233.184 196.039 233.278C192.863 233.278 189.735 233.326 186.559 233.326C183.905 233.326 180.777 232.899 178.218 233.657C175.753 234.368 174.142 238.255 177.365 239.155C178.218 239.298 178.597 237.923 177.744 237.686Z" fill="#D0F500"/>
<path d="M174.236 246.028C169.497 263.138 163.714 279.964 156.842 296.363C156.51 297.216 157.885 297.595 158.216 296.742C165.089 280.343 170.871 263.517 175.611 246.407C175.848 245.507 174.473 245.128 174.236 246.028Z" fill="#D0F500"/>
<path d="M174.71 247.45C186.891 248.919 199.451 247.924 211.679 247.782C212.58 247.782 212.58 246.36 211.679 246.36C199.451 246.549 186.891 247.497 174.71 246.028C173.762 245.933 173.81 247.355 174.71 247.45Z" fill="#D0F500"/>
<path d="M210.163 247.687C206.134 262.569 201.868 277.357 197.366 292.145C197.081 293.045 198.456 293.377 198.74 292.524C203.243 277.784 207.508 262.949 211.537 248.066C211.774 247.166 210.4 246.787 210.163 247.687Z" fill="#D0F500"/>
<path d="M157.505 297.074C164.188 297.026 170.824 296.979 177.506 296.932C180.777 296.932 184 296.884 187.27 296.884C190.161 296.884 193.052 296.979 195.896 296.315C196.797 296.126 196.418 294.751 195.517 294.941C192.531 295.652 189.403 295.462 186.322 295.462C183.052 295.462 179.829 295.51 176.559 295.51C170.207 295.557 163.856 295.605 157.505 295.605C156.605 295.652 156.605 297.074 157.505 297.074Z" fill="#D0F500"/>
<path d="M217.604 248.019C249.644 247.118 281.731 247.165 313.771 248.208C314.671 248.256 314.671 246.834 313.771 246.786C281.731 245.744 249.644 245.649 217.604 246.597C216.703 246.597 216.703 248.019 217.604 248.019Z" fill="#D0F500"/>
<path d="M216.277 256.36C234.856 256.313 253.435 256.313 272.062 256.266C272.963 256.266 272.963 254.844 272.062 254.844C253.483 254.891 234.903 254.891 216.277 254.939C215.329 254.939 215.329 256.36 216.277 256.36Z" fill="#D0F500"/>
<path d="M197.176 295.415C198.029 293.993 198.645 292.476 198.977 290.912C199.167 290.012 197.792 289.632 197.603 290.533C197.271 292.002 196.749 293.424 195.944 294.704C195.47 295.462 196.702 296.173 197.176 295.415Z" fill="#D0F500"/>
<path d="M375.007 252.189C371.215 270.295 367.566 288.4 364.011 306.506C363.821 307.406 365.196 307.785 365.386 306.885C368.94 288.779 372.59 270.674 376.381 252.569C376.571 251.668 375.197 251.289 375.007 252.189Z" fill="#D0F500"/>
<path d="M364.295 307.691C383.775 308.212 403.208 308.733 422.687 309.255C441.93 309.776 461.173 310.582 480.416 310.582C481.317 310.582 481.317 309.16 480.416 309.16C461.173 309.16 441.93 308.307 422.687 307.833C403.208 307.311 383.775 306.79 364.295 306.269C363.395 306.221 363.395 307.643 364.295 307.691Z" fill="#D0F500"/>
<path d="M365.717 307.549C371.594 301.197 377.472 294.799 383.349 288.448C383.017 288.448 382.685 288.448 382.353 288.448C384.297 290.865 386.572 292.856 389.226 294.467C390.032 294.941 390.743 293.709 389.937 293.235C387.377 291.718 385.197 289.775 383.349 287.453C383.112 287.168 382.59 287.216 382.353 287.453C376.476 293.804 370.599 300.202 364.722 306.553C364.106 307.217 365.101 308.212 365.717 307.549Z" fill="#D0F500"/>
<path d="M389.605 293.993C395.909 286.552 402.26 279.158 408.563 271.717C409.132 271.006 408.137 270.011 407.568 270.722C401.264 278.163 394.913 285.557 388.61 292.998C387.993 293.661 388.989 294.657 389.605 293.993Z" fill="#D0F500"/>
<path d="M407.568 271.006C408.848 272.712 410.128 274.371 411.407 276.077C411.692 276.457 412.118 276.551 412.545 276.22C418.327 271.48 423.967 266.503 429.418 261.385C430.082 260.768 429.086 259.773 428.423 260.389C422.972 265.508 417.332 270.485 411.55 275.224C411.929 275.272 412.308 275.319 412.687 275.366C411.407 273.66 410.128 272.001 408.848 270.295C408.232 269.537 407 270.248 407.568 271.006Z" fill="#D0F500"/>
<path d="M427.901 262.001C435.816 268.257 443.447 274.845 450.841 281.67C451.505 282.286 452.5 281.291 451.836 280.675C444.443 273.802 436.812 267.262 428.897 261.005C428.186 260.437 427.19 261.432 427.901 262.001Z" fill="#D0F500"/>
<path d="M451.694 281.481C461.458 275.272 468.472 265.698 477.999 259.157C478.757 258.635 478.046 257.403 477.288 257.925C467.761 264.465 460.747 274.039 450.983 280.248C450.225 280.722 450.936 281.954 451.694 281.481Z" fill="#D0F500"/>
<path d="M469.705 260.626C472.691 260.105 475.582 259.346 478.473 258.446C478.189 258.161 477.904 257.877 477.62 257.593C477.099 259.962 476.625 262.332 476.103 264.702C475.914 265.603 477.288 265.982 477.478 265.081C477.999 262.711 478.473 260.342 478.994 257.972C479.089 257.45 478.663 256.929 478.141 257.119C475.25 258.019 472.359 258.778 469.373 259.299C468.472 259.441 468.852 260.816 469.705 260.626Z" fill="#D0F500"/>
<path d="M392.449 255.934C390.79 272.854 389.084 289.775 387.425 306.695C387.33 307.596 388.752 307.596 388.847 306.695C390.505 289.775 392.212 272.854 393.871 255.934C393.918 255.033 392.496 255.033 392.449 255.934Z" fill="#D0F500"/>
<path d="M413.493 252.948C411.739 271.1 410.317 289.301 409.275 307.501C409.227 308.401 410.649 308.401 410.696 307.501C411.739 289.301 413.161 271.1 414.915 252.948C414.962 252 413.54 252.047 413.493 252.948Z" fill="#D0F500"/>
<path d="M453.211 252.426C451.362 271.385 450.035 290.343 449.229 309.397C449.182 310.297 450.604 310.297 450.651 309.397C451.457 290.391 452.784 271.385 454.633 252.426C454.727 251.526 453.306 251.526 453.211 252.426Z" fill="#D0F500"/>
<path d="M429.465 245.507C428.233 266.645 427.001 287.737 425.768 308.875C425.721 309.776 427.143 309.776 427.19 308.875C428.422 287.737 429.655 266.645 430.887 245.507C430.934 244.559 429.513 244.559 429.465 245.507Z" fill="#D0F500"/>
<path d="M281.731 256.123C291.352 256.977 300.974 254.844 310.595 256.029C311.496 256.123 311.496 254.702 310.595 254.607C300.974 253.422 291.352 255.555 281.731 254.702C280.783 254.654 280.83 256.076 281.731 256.123Z" fill="#D0F500"/>
<path d="M132.48 170.621C149.259 168.156 165.421 174.886 180.303 181.901C194.095 188.442 207.746 195.124 223.055 197.068C255.758 201.144 287.087 187.399 317.847 178.725C335.905 173.654 354.627 170.099 373.443 172.469C374.343 172.564 374.343 171.142 373.443 171.047C340.123 166.829 308.652 180.858 277.276 189.532C261.351 193.939 244.857 197.257 228.268 196.167C211.632 195.077 196.987 188.347 182.152 181.285C166.558 173.843 149.78 166.687 132.101 169.293C131.201 169.388 131.627 170.763 132.48 170.621Z" fill="#A66DFF"/>
<path d="M222.249 183.56C264.005 185.787 302.68 167.161 342.635 158.203C354.152 155.643 365.859 153.842 377.708 153.605C378.609 153.605 378.609 152.183 377.708 152.183C336 153.131 297.846 172.327 257.274 179.673C245.71 181.759 234.003 182.801 222.249 182.185C221.348 182.043 221.348 183.465 222.249 183.56Z" fill="#A66DFF"/>
<path d="M141.912 135.073C160.823 136.4 178.075 144.837 195.517 151.425C213.243 158.108 231.728 161.852 250.686 161.378C261.54 161.094 272.347 159.53 282.869 156.781C283.769 156.544 283.39 155.169 282.489 155.406C263.389 160.43 243.34 161.378 223.86 158.013C205.281 154.79 188.55 146.685 170.966 140.382C161.581 137.016 151.913 134.362 141.912 133.699C140.964 133.604 141.012 135.026 141.912 135.073Z" fill="#A66DFF"/>
<path d="M270.498 43.9302C270.119 46.3 269.503 48.6224 268.65 50.8975C268.46 51.3714 268.934 51.798 269.313 51.798C299.505 53.1251 329.696 53.4095 359.888 52.6037C360.788 52.5563 360.788 51.1344 359.888 51.1818C329.696 51.9876 299.457 51.7506 269.313 50.3761C269.55 50.6605 269.787 50.9922 269.977 51.2766C270.83 49.0016 271.446 46.7266 271.825 44.3094C272.015 43.4088 270.64 43.0297 270.498 43.9302Z" fill="#D0F500"/>
<path d="M271.446 44.4516C301.827 44.8308 332.161 45.21 362.542 45.5891C363.442 45.5891 363.442 44.1672 362.542 44.1672C332.161 43.7881 301.827 43.4089 271.446 43.0297C270.545 42.9823 270.545 44.4042 271.446 44.4516Z" fill="#D0F500"/>
<path d="M362.399 44.7362C361.451 46.9638 360.741 49.2862 360.361 51.7034C360.219 52.604 361.594 52.9831 361.736 52.0826C362.115 49.8076 362.731 47.58 363.632 45.4471C363.963 44.594 362.731 43.8831 362.399 44.7362Z" fill="#D0F500"/>
<path d="M26.6444 316.743C18.5396 318.687 10.3875 320.63 2.28271 322.573C6.50098 349.21 9.81872 362.481 12.1411 362.291C14.1318 362.149 15.4115 352.196 15.9802 332.432C20.4829 330.867 24.9855 329.351 29.4882 327.787C28.5403 324.137 27.5923 320.44 26.6444 316.743Z" fill="#161616" stroke="#161616" stroke-width="3"/>
<path d="M82.0508 217.448C81.0081 220.576 79.444 225.553 77.8325 231.857C74.4674 244.986 74.3252 250.578 70.9126 267.262C66.8366 287.121 64.7511 290.533 63.424 292.477C57.4047 301.103 49.063 305.037 44.5129 307.169C33.517 312.336 23.2794 312.81 17.2127 312.573C16.9757 315.369 16.7387 322.194 20.8148 329.067C22.8528 332.479 25.27 334.801 27.1185 336.271C33.2326 336.603 43.7546 336.366 55.6036 331.768C60.6751 329.825 73.6142 324.611 83.4727 311.672C91.0561 301.719 93.1415 292.003 95.4639 281.101C99.9666 260.105 94.3738 256.929 99.9666 239.108C103.332 228.302 107.218 222.994 104.469 219.012C101.199 214.131 90.9139 215.41 82.0508 217.448Z" fill="#4C4C4C"/>
<path opacity="0.09" d="M82.6194 217.496C82.1455 222.567 81.4345 229.582 80.4392 237.923C79.5387 245.27 78.5433 253.232 76.9319 262.522C74.1355 278.447 72.7136 286.41 69.6802 293.045C67.026 298.828 61.9072 309.539 50.153 317.644C37.9247 326.033 25.2699 326.839 19.6298 326.886C18.9662 325.37 18.3027 323.426 17.8761 321.199C17.2599 317.976 17.2599 315.179 17.4495 313.094C21.099 313.141 26.123 312.857 31.9528 311.577C42.0956 309.302 48.8733 305.179 50.6269 304.089C54.94 301.387 59.4426 298.591 63.1395 293.093C65.6515 289.396 66.6943 286.031 68.4005 279.016C70.9125 268.684 72.1922 263.565 73.235 255.981C74.3725 247.213 76.8845 234.416 82.6194 217.496Z" fill="#3D3D3D"/>
<path opacity="0.12" d="M17.5442 312.952C17.3546 315.037 17.2598 317.881 17.9234 321.151C18.3973 323.569 19.1083 325.559 19.7718 327.123C26.2651 325.749 46.6929 320.535 59.3477 301.861C63.092 296.316 65.3196 290.865 66.6941 286.173C65.4144 289.159 63.1868 293.519 59.2529 297.738C52.4753 304.989 44.7023 307.643 39.1095 309.539C34.3699 311.198 26.9761 313.094 17.5442 312.952Z" fill="#3D3D3D"/>
<path d="M78.5907 360.253C74.8938 370.443 71.1969 380.633 67.5 390.871C93.4732 393.904 106.697 394.331 107.171 392.056C107.55 390.302 99.8717 386.842 84.2309 381.771C86.3637 375.467 88.5439 369.163 90.6768 362.86C86.6481 362.007 82.6194 361.106 78.5907 360.253Z" fill="#161616" stroke="#161616" stroke-width="3"/>
<path d="M117.124 222.851C117.645 229.866 118.119 239.44 118.024 250.72C117.787 281.86 113.569 305.226 112.337 311.577C109.161 328.213 103.663 349.684 93.7574 373.666C90.6293 373.809 82.9037 373.714 75.1781 368.879C70.4385 365.893 67.4999 362.291 65.8884 359.874C68.7796 354.376 72.3343 347.124 75.7943 338.261C81.9084 322.621 84.5626 310.155 86.2688 301.956C90.1079 283.519 92.0512 274.324 90.4871 264.465C88.9704 255.128 86.5058 253.517 86.885 245.554C86.9798 243.801 88.1647 223.373 100.962 219.486C107.55 217.543 114.09 220.956 117.124 222.851Z" fill="#4C4C4C"/>
<path opacity="0.14" d="M105.891 219.297C110.109 221.098 108.734 232.947 108.355 236.075C103.284 280.722 110.251 256.692 104.137 284.23C95.7479 322.052 84.4202 358.405 80.4389 370.917C79.491 370.917 78.1639 370.823 76.742 370.159C75.4149 369.543 75.1305 368.737 73.5191 367.457C71.7654 366.083 71.1492 366.178 69.8222 365.23C68.6372 364.377 67.168 362.86 66.1252 360.064C68.5899 355.229 71.5284 349.02 74.5144 341.532C78.3061 332.052 80.3915 324.848 82.6665 317.075C82.6665 317.075 89.776 292.571 91.0557 273.85C91.2927 270.105 91.1031 267.546 90.8187 265.698C90.3921 262.759 89.776 261.29 88.8281 257.782C88.5911 256.882 87.264 251.763 86.8374 247.924C85.6525 236.596 91.6718 227.496 94.5156 224.226C95.5109 223.041 96.838 221.761 98.7339 220.766C99.4448 220.434 103.568 218.301 105.891 219.297Z" fill="#3D3D3D"/>
<path opacity="0.11" d="M95.0371 296.41C94.2313 307.928 91.5297 311.34 83.6619 339.636C80.202 352.054 77.6426 362.244 75.9837 368.784C74.6567 368.263 72.9978 367.41 71.2915 366.083C68.7321 364.092 67.2154 361.912 66.3623 360.395C68.7321 355.514 71.9077 348.546 74.9884 339.873C76.2207 336.46 77.0265 333.853 77.7848 331.484C88.5912 296.837 90.2974 286.315 90.8188 279.111C91.2454 272.997 90.9136 268.067 90.8188 266.503C90.3448 259.963 89.2073 255.46 89.2073 255.46C89.2073 255.46 96.6011 274.039 95.0371 296.41Z" fill="#3D3D3D"/>
<path d="M35.1283 201.665C35.2231 201.523 35.6971 201.571 36.645 201.665C38.2565 201.808 38.7779 202.044 39.8206 202.139C40.8159 202.187 42.143 202.281 42.5222 201.665C43.0435 200.86 41.3847 199.296 39.0622 195.93C35.081 190.243 35.2705 188.252 35.6023 187.352C35.6971 187.115 35.9815 186.214 36.5976 186.072C37.4034 185.882 38.3039 186.972 39.157 188.063C40.5789 189.816 41.1477 191.191 41.2899 191.096C41.5742 191.001 39.9154 187.446 40.2945 183.086C40.3893 181.901 40.5789 180.195 41.4321 179.958C42.1904 179.721 43.3279 180.669 44.2284 182.185C44.2284 181.996 44.4654 179.389 45.3659 179.199C46.0769 179.057 46.8826 180.432 47.6884 181.759C48.3519 182.849 48.7785 183.844 49.0155 184.508C48.9681 183.181 49.679 182.091 50.6743 181.759C51.7644 181.427 52.7598 182.28 52.8072 182.328C53.8973 183.323 53.8025 185.077 53.8025 185.693C53.7077 188.394 53.9921 192.944 54.6082 199.58C55.8405 199.106 57.6416 198.253 59.6322 196.926C61.6703 195.551 63.8031 193.75 69.0641 187.446C71.1021 184.982 72.1448 183.75 73.9459 181.332C80.4392 172.659 84.2783 167.54 88.1648 160.288C89.3971 157.966 91.3877 154.032 95.5112 150.525C96.8383 149.387 99.4451 147.254 100.962 148.06C102.052 148.629 102.147 150.43 102.099 153.084C102.052 158.866 102.005 161.71 101.009 165.644C98.7342 174.744 94.5159 181.095 93.568 182.517C89.8237 188.015 86.0793 191.191 81.2449 195.314C76.2209 199.58 72.05 203.087 65.462 205.741C61.1489 207.448 57.7364 208.064 54.1343 208.727C48.1623 209.77 45.0816 210.291 42.0008 208.964C37.593 207.068 34.607 202.376 35.1283 201.665Z" fill="white"/>
<path d="M100.772 147.396C95.6535 148.107 92.6201 152.894 89.8712 156.828C86.3638 161.852 83.0461 167.019 79.6336 172.09C76.221 177.209 72.6663 182.233 68.6376 186.925C66.6944 189.153 64.7037 191.333 62.5235 193.323C60.1063 195.598 57.4521 198.205 54.2765 199.295C53.4234 199.58 53.8026 200.954 54.6557 200.67C59.6323 199.011 63.8506 194.271 67.3105 190.527C71.2918 186.214 74.8465 181.522 78.2117 176.687C81.6242 171.758 84.8945 166.687 88.2123 161.71C91.3404 157.065 95.0373 149.624 101.151 148.771C102.052 148.629 101.673 147.302 100.772 147.396Z" fill="white"/>
<path d="M55.9351 209.486C62.0018 208.917 67.1206 206.121 72.192 202.898C77.216 199.722 82.0031 196.073 86.2687 191.902C91.7667 186.593 96.4115 180.29 99.4923 173.228C102.526 166.166 103.948 158.44 102.952 150.762C102.857 149.861 101.436 149.861 101.53 150.762C103.142 163.606 98.023 176.356 89.776 186.119C86.0791 190.48 81.7661 194.319 77.216 197.732C70.9597 202.376 63.8503 207.353 55.8877 208.111C55.0346 208.159 55.0346 209.581 55.9351 209.486Z" fill="white"/>
<path d="M55.9351 208.016C53.1387 207.969 50.4371 208.632 47.6881 208.822C44.5126 209.059 41.8584 208.111 39.2516 206.357C38.2088 205.646 37.0713 204.793 36.4078 203.656C35.0333 201.239 37.8771 202.66 38.8724 202.945C40.4839 203.419 41.9532 203.229 43.1855 202.139C43.8964 201.523 42.8537 200.528 42.1901 201.144C40.0573 203.04 36.076 198.821 34.6541 201.239C33.564 203.087 36.076 205.741 37.3083 206.736C39.4411 208.49 42.0479 209.912 44.8443 210.244C48.5412 210.67 52.2381 209.391 55.9351 209.485C56.8356 209.438 56.8356 208.016 55.9351 208.016Z" fill="white"/>
<path d="M43.2804 201.333C42.3325 198.158 40.1997 195.693 38.4934 192.897C38.2564 192.517 35.4126 187.351 36.3606 186.925C38.0194 186.166 40.3892 190.953 40.721 191.901C41.0054 192.754 42.3799 192.375 42.0955 191.522C41.3372 189.342 40.0101 187.304 38.0194 185.977C36.9767 185.266 35.46 184.745 34.9861 186.356C34.3699 188.536 35.9814 191.475 37.0715 193.276C38.7778 196.072 41.0054 198.489 41.9533 201.712C42.1903 202.613 43.5648 202.234 43.2804 201.333Z" fill="white"/>
<path d="M42.5219 191.475C42.0954 189.721 41.5266 187.92 41.2422 186.119C41.0527 185.029 41.0053 183.939 41.1001 182.849C41.2422 181.427 41.5266 180.005 42.6641 181.664C44.4178 184.271 44.9866 187.825 45.8397 190.764C46.0767 191.664 47.4512 191.285 47.2142 190.385C46.5032 187.873 45.9345 185.218 44.8918 182.801C44.3704 181.616 43.1855 178.962 41.5266 178.962C39.8204 178.962 39.773 181.616 39.6782 182.801C39.4412 185.882 40.3891 188.821 41.1475 191.759C41.337 192.754 42.7115 192.375 42.5219 191.475Z" fill="white"/>
<path d="M45.8397 184.745C45.6028 183.749 45.1288 182.091 45.508 181.095C46.2189 179.247 47.2616 182.564 47.546 183.275C48.5887 185.787 49.1575 188.442 49.2997 191.143C49.3471 192.044 50.769 192.044 50.7216 191.143C50.532 188.536 50.1054 186.024 49.2049 183.607C48.6835 182.138 47.9252 179.531 46.5033 178.725C43.2803 176.877 44.1809 183.986 44.4179 185.171C44.6548 186.024 46.0293 185.645 45.8397 184.745Z" fill="white"/>
<path d="M50.6269 186.403C50.5795 185.929 50.2477 183.37 50.8165 182.896C52.3806 181.522 52.8071 184.034 52.9967 184.792C53.3285 186.403 53.2811 188.204 53.4233 189.863C53.6603 193.276 53.8972 196.641 54.1342 200.054C54.1816 200.954 55.6035 200.954 55.5561 200.054C55.3191 196.641 55.0821 193.276 54.8452 189.863C54.703 187.494 54.8926 184.365 53.6603 182.233C52.9967 181.095 51.8592 180.052 50.5321 180.905C48.8258 182.043 49.0628 185.076 49.2998 186.783C49.3946 187.683 50.7691 187.304 50.6269 186.403Z" fill="white"/>
<path opacity="0.09" d="M101.294 149.055C101.057 149.055 101.246 152.799 99.7769 158.013C98.6394 161.994 96.7909 165.786 90.819 173.654C85.321 180.905 81.3397 186.166 74.4199 192.328C66.8365 199.106 63.0448 202.471 57.8312 203.75C46.5509 206.547 36.1711 200.054 35.1757 202.234C34.6544 203.419 37.4982 205.789 38.5883 206.594C39.9628 207.59 42.617 209.154 48.8733 209.248C55.5561 209.343 60.6749 207.732 61.8125 207.353C73.8511 203.371 81.7663 195.504 85.9846 191.143C91.5773 185.456 96.1274 180.811 99.1133 173.038C103.9 160.952 101.768 149.055 101.294 149.055Z" fill="#3D3D3D"/>
<path opacity="0.13" d="M100.345 167.35C100.014 167.161 98.0231 170.478 95.1793 174.412C95.1793 174.412 88.3542 183.892 79.5385 191.949C74.7041 196.357 65.8884 203.182 51.9065 208.538C54.7977 208.727 59.1107 208.632 63.8978 207.021C65.4144 206.5 69.2061 205.078 78.3536 197.115C85.6526 190.764 89.7287 187.257 93.8048 181.095C98.2127 174.507 100.819 167.587 100.345 167.35Z" fill="#3D3D3D"/>
<path d="M106.27 142.183C103.284 143.226 101.436 145.074 99.4924 147.017C94.0892 152.468 92.1459 158.629 90.6293 163.606C86.0792 178.583 83.7568 186.024 82.7141 192.565C81.4818 200.006 80.439 209.865 80.7708 221.524C83.2354 223.23 86.7428 225.411 91.198 227.307C96.3168 229.487 100.914 231.43 106.839 230.956C109.209 230.766 113.285 230.103 117.835 227.307C118.072 224.226 118.593 219.439 119.968 213.799C122.337 203.798 124.897 200.907 129.068 188.489C132.338 178.678 133.949 173.654 133.712 167.635C133.523 163.416 133.144 155.169 126.935 148.724C122.195 143.842 113.711 139.576 106.27 142.183Z" fill="white"/>
<path d="M104.137 142.515C98.4498 145.927 94.9899 151.615 92.1461 157.444C89.1128 163.748 86.8377 170.384 85.1789 177.209C81.7189 191.428 80.8658 206.168 80.2971 220.766C80.2497 221.666 81.6715 221.666 81.7189 220.766C82.2403 206.831 83.046 192.849 86.1742 179.199C87.6909 172.516 89.7763 165.928 92.6675 159.672C95.4639 153.558 98.9238 147.254 104.848 143.747C105.607 143.273 104.896 142.041 104.137 142.515Z" fill="white"/>
<path d="M122.48 145.595C127.835 149.766 131.532 155.643 132.717 162.326C134.044 169.957 132.196 177.73 129.636 184.887C127.172 191.807 123.949 198.395 121.721 205.409C119.494 212.282 118.119 219.439 117.55 226.643C117.456 227.543 118.878 227.543 118.972 226.643C119.636 218.538 121.342 210.528 124.091 202.897C126.698 195.598 130.158 188.631 132.385 181.19C134.376 174.507 135.419 167.255 133.76 160.335C132.291 154.079 128.594 148.534 123.522 144.647C122.764 144.031 121.769 145.026 122.48 145.595Z" fill="white"/>
<path d="M80.5816 221.714C86.3166 226.832 93.426 230.198 101.057 231.288C107.124 232.141 114.944 232.188 118.925 226.738C119.447 225.979 118.214 225.268 117.693 226.027C113.712 231.43 104.896 230.719 99.1136 229.534C92.5729 228.207 86.5536 225.126 81.5769 220.718C80.9134 220.102 79.9181 221.097 80.5816 221.714Z" fill="white"/>
<path opacity="0.11" d="M112.384 142.372C113.996 145.169 108.024 150.335 103.426 158.392C100.488 163.511 99.3501 167.966 97.1224 176.877C91.9089 197.731 92.9042 221.429 93.3307 228.302C89.2547 226.121 85.226 223.989 81.1499 221.808C81.3395 217.164 81.7187 210.528 82.477 202.565C83.7093 189.958 84.4202 183.086 86.8375 174.175C88.9703 166.449 91.0557 159.245 96.7433 151.52C100.44 146.496 104.374 143.036 107.218 140.856C109.019 140.761 111.531 140.903 112.384 142.372Z" fill="#3D3D3D"/>
<path opacity="0.15" d="M94.2791 156.686C94.8952 156.876 92.3832 166.781 88.3545 188.678C85.7003 203.039 85.0842 208.206 87.217 214.604C89.966 222.804 95.5114 227.78 94.4687 228.87C93.8051 229.534 90.9613 228.586 81.1503 221.24C80.9133 210.907 81.5769 196.641 85.7003 180.289C88.9707 167.35 93.6155 156.449 94.2791 156.686Z" fill="#3D3D3D"/>
<path d="M138.5 122.845C140.727 124.883 140.443 128.864 140.016 134.647C139.732 138.676 139.59 140.714 138.215 142.657C135.371 146.685 128.926 148.534 123.854 146.259C123.238 145.975 120.11 144.505 118.404 140.951C115.939 135.832 118.498 130.713 119.02 129.765C123.001 122.324 134.518 119.148 138.5 122.845Z" fill="#333333"/>
<path d="M138.594 96.635C140.395 97.0142 141.485 99.5262 143.666 104.598C145.514 108.911 146.367 112.418 146.746 114.077C147.363 116.968 147.694 119.433 147.836 121.281C146.557 121.66 145.277 121.992 143.997 122.371C143.713 124.03 143.097 126.495 141.865 129.244C140.158 133.035 138.736 136.306 135.419 137.822C131.58 139.576 127.456 138.012 126.082 137.348C125.56 138.676 124.802 140.192 123.807 141.804C123.096 142.941 122.337 143.889 121.674 144.695C117.361 145.785 115.37 144.647 114.612 144.079C110.63 141.14 110.962 131.661 117.076 120.949C116.745 120.428 116.223 119.67 115.56 118.816C114.185 117.11 113.711 117.063 113.095 116.068C112.905 115.783 111.436 113.271 112.621 110.996C113.19 109.906 114.375 108.958 115.702 108.863C117.313 108.721 117.835 110.001 119.209 110.38C121.579 111.091 124.186 108.532 130.679 102.417C136.13 97.2986 137.22 96.3507 138.594 96.635Z" fill="white"/>
<path d="M143.144 104.408C145.372 110.001 146.794 115.83 147.315 121.85C147.363 122.513 148.453 122.513 148.405 121.85C147.884 115.736 146.462 109.811 144.187 104.124C143.95 103.46 142.907 103.744 143.144 104.408Z" fill="black"/>
<path d="M147.6 121.376C146.32 121.518 145.04 121.707 143.761 121.85C143.097 121.944 143.097 122.987 143.761 122.94C145.04 122.798 146.32 122.608 147.6 122.466C148.263 122.324 148.263 121.281 147.6 121.376Z" fill="white"/>
<path d="M143.476 122.324C142.623 127.063 140.68 131.661 137.504 135.31C133.712 139.766 127.693 137.443 123.048 135.547C122.432 135.263 122.148 136.306 122.764 136.59C127.124 138.391 133.381 140.856 137.315 137.064C141.201 133.367 143.523 127.822 144.471 122.608C144.614 121.945 143.618 121.66 143.476 122.324Z" fill="black"/>
<path d="M125.371 137.585C124.376 139.86 123.143 141.993 121.721 144.031C121.342 144.6 122.243 145.121 122.622 144.553C124.044 142.515 125.276 140.334 126.271 138.107C126.556 137.491 125.655 136.969 125.371 137.585Z" fill="white"/>
<path d="M122.669 136.732C123.38 137.491 124.186 138.154 125.086 138.628C125.703 138.96 126.224 138.059 125.608 137.727C124.755 137.254 124.044 136.685 123.38 135.974C122.954 135.452 122.195 136.211 122.669 136.732Z" fill="white"/>
<path d="M139.163 112.134C138.879 111.565 138.926 110.854 139.305 110.38C139.021 110.285 138.689 110.238 138.405 110.143C138.547 110.949 138.547 111.707 138.5 112.513C138.689 112.323 138.879 112.134 139.021 111.991C139.068 112.086 139.116 112.181 139.21 112.276C139.353 111.612 138.31 111.328 138.168 111.991C138.026 112.56 138.405 113.081 139.021 113.081C139.353 113.081 139.542 112.844 139.542 112.56C139.637 111.66 139.59 110.806 139.447 109.906C139.4 109.527 138.784 109.385 138.547 109.669C137.836 110.569 137.694 111.707 138.263 112.702C138.547 113.271 139.495 112.75 139.163 112.134Z" fill="black"/>
<path d="M136.319 105.735C136.983 104.076 138.879 103.602 140.348 104.55C140.917 104.929 141.438 103.981 140.869 103.65C138.784 102.275 136.224 103.176 135.276 105.451C135.04 106.114 136.082 106.399 136.319 105.735Z" fill="black"/>
<path d="M134.139 114.266C133.949 114.266 133.712 114.266 133.523 114.266C133.475 114.172 133.475 114.077 133.428 113.982C133.523 113.65 133.665 113.556 133.949 113.65C133.997 113.698 134.092 113.793 134.139 113.84C134.139 113.84 134.139 113.84 134.139 113.793C133.997 113.556 133.665 113.461 133.428 113.603C133.191 113.745 133.096 114.077 133.238 114.314C133.428 114.551 133.712 114.693 133.997 114.646C134.281 114.551 134.518 114.314 134.518 113.982C134.518 113.271 133.523 113.082 133.191 113.65C133.049 113.887 133.144 114.219 133.381 114.361C133.665 114.598 133.997 114.503 134.139 114.266Z" fill="black"/>
<path d="M136.509 116.447C136.414 116.541 136.272 116.684 136.13 116.778C136.13 116.778 136.13 116.778 136.177 116.778C136.082 116.778 135.987 116.778 135.893 116.778C135.893 116.778 135.845 116.778 135.845 116.731C135.798 116.684 135.703 116.589 135.656 116.541V116.589C135.656 116.447 135.608 116.304 135.608 116.162C135.656 116.115 135.703 116.067 135.75 116.02C135.513 116.21 135.419 116.494 135.561 116.731C135.703 116.968 136.082 117.11 136.272 116.921C136.604 116.684 136.841 116.21 136.461 115.878C136.319 115.736 136.082 115.641 135.845 115.736C135.608 115.783 135.513 115.925 135.419 116.162C135.324 116.447 135.513 116.731 135.798 116.826C136.13 116.921 136.414 116.731 136.509 116.447Z" fill="black"/>
<path d="M132.765 116.494C132.717 116.494 132.717 116.494 132.67 116.494C132.006 116.494 131.959 117.584 132.67 117.584C132.717 117.584 132.717 117.584 132.765 117.584C133.476 117.584 133.476 116.494 132.765 116.494Z" fill="black"/>
<path d="M137.03 123.509C137.789 125.831 138.973 127.917 141.343 128.817C141.959 129.054 142.244 128.059 141.628 127.774C139.684 127.016 138.689 125.073 138.073 123.177C137.836 122.561 136.841 122.845 137.03 123.509Z" fill="black"/>
<path d="M136.888 124.077C137.173 123.651 137.646 123.414 138.215 123.319C138.5 123.272 138.642 122.892 138.594 122.656C138.5 122.324 138.215 122.229 137.931 122.276C137.125 122.371 136.462 122.845 135.988 123.509C135.561 124.077 136.462 124.646 136.888 124.077Z" fill="white"/>
<path d="M116.745 117.916C113.854 118.959 112.29 114.503 112.811 112.418C113.095 111.328 113.854 110.048 114.991 109.716C116.555 109.243 117.977 110.475 118.972 111.423C119.446 111.897 120.205 111.138 119.731 110.664C118.451 109.432 116.887 108.247 114.991 108.626C113.285 108.958 112.242 110.57 111.816 112.134C111.057 115.025 113.38 120.238 117.029 118.959C117.693 118.722 117.408 117.679 116.745 117.916Z" fill="black"/>
<path d="M134.85 97.6777C134.281 98.3412 133.428 99.4314 132.433 100.853C128.831 106.114 129.162 108.247 126.65 109.764C124.707 110.949 121.721 111.328 119.446 110.38C117.74 109.669 117.266 108.579 115.797 108.626C114.185 108.674 112.668 110.001 112.052 111.565C111.294 113.413 112.052 115.12 112.574 116.21C113.048 117.205 113.711 118.674 115.133 119.006C116.034 119.196 116.839 118.864 117.266 118.627C117.218 119.148 117.124 119.954 117.076 120.949C116.839 125.073 117.313 127.917 117.503 129.765C117.977 134.22 118.403 137.775 117.076 141.14C115.038 146.164 109.967 148.392 108.118 149.197C100.251 152.657 92.9516 149.766 91.9563 149.34C90.3922 148.676 82.9036 145.595 81.0551 138.581C79.9176 134.362 81.1973 130.097 81.7187 128.296C81.9557 127.537 82.5718 125.642 83.8041 123.461C86.5057 118.627 90.3922 115.688 93.0938 114.029C93.9943 110.759 95.511 106.067 98.1652 100.711C101.151 94.6443 102.81 91.2792 106.602 88.151C112.621 83.1744 119.446 82.5583 121.674 82.4161C122.811 82.3213 128.404 81.9895 135.039 84.6911C139.732 86.587 145.23 88.862 147.505 94.5021C150.112 101.09 146.415 107.631 145.704 108.863C145.514 108.057 145.135 106.825 144.329 105.64C143.144 103.887 141.817 103.176 139.827 101.801C138.547 100.806 136.841 99.5262 134.85 97.6777Z" fill="#333333"/>
<path d="M115.323 144.505C117.361 145.69 119.731 145.975 122.006 145.216C122.859 144.932 122.48 143.557 121.626 143.842C119.731 144.458 117.787 144.268 116.034 143.273C115.228 142.846 114.517 144.079 115.323 144.505Z" fill="white"/>
<path opacity="0.14" d="M113.095 116.162C113.474 117.252 114.47 118.011 115.56 118.153C116.745 118.295 117.93 117.726 118.546 116.683C118.309 118.247 118.072 121.423 119.541 124.93C121.532 129.765 125.418 132.04 127.124 133.035C131.295 135.405 135.277 135.547 137.22 135.5C136.793 136.258 135.845 137.49 134.234 138.296C130.395 140.192 126.366 137.633 126.129 137.49C125.086 139.765 123.996 141.424 123.143 142.609C121.958 144.221 121.484 144.6 121.152 144.742C118.877 146.069 115.891 144.695 115.038 144.268C114.09 145.169 112.716 146.306 110.915 147.396C109.398 148.297 105.322 150.667 99.6819 150.714C99.6819 150.714 92.0985 150.714 85.9844 145.595C83.6146 143.605 82.6193 141.851 82.3349 141.282C82.0979 140.808 81.1026 138.912 80.8656 135.832C80.3443 129.907 82.9037 124.883 84.3255 122.608C86.8849 118.532 90.1553 116.115 92.2407 114.835C92.0985 115.356 90.3449 122.703 94.2314 126.257C99.1132 130.665 110.157 126.494 112.574 120.143C113.19 118.579 113.19 117.11 113.095 116.162Z" fill="#111111"/>
<path opacity="0.07" d="M118.878 129.291C118.499 129.48 119.399 131.945 120.252 133.699C121.627 136.59 123.333 138.723 124.565 140.002C124.897 139.149 125.229 138.296 125.561 137.49C126.651 137.964 128.689 138.628 131.248 138.486C132.954 138.391 134.329 137.964 135.277 137.585C127.978 137.443 124.281 135.215 122.243 133.177C120.584 131.518 119.257 129.101 118.878 129.291Z" fill="#3D3D3D"/>
<path d="M236.61 85.5443C235.946 85.1651 235.804 84.2646 235.709 83.6484C235.377 81.4208 237.036 79.6197 237.321 79.2406C239.074 77.2973 240.07 78.2926 241.729 76.4916C242.961 75.1645 242.866 74.0744 244.762 72.3207C245.994 71.1358 246.421 71.278 246.516 71.3254C247.179 71.6098 246.61 73.0791 247.274 75.3541C247.843 77.2499 248.554 77.2499 248.791 78.8614C248.838 79.288 249.17 81.4208 247.89 82.6531C247.321 83.2219 246.563 83.364 244.999 83.6484C243.198 83.9802 242.961 83.7906 241.729 84.0276C238.743 84.5964 237.7 86.1604 236.61 85.5443Z" fill="white"/>
<path d="M236.468 83.5537C229.311 90.9475 222.154 98.3887 214.997 105.783C214.097 106.825 214.049 108.389 214.855 109.432C215.755 110.57 217.367 110.854 218.647 110.048C225.993 101.517 233.292 92.9382 240.638 84.4068C239.264 84.1225 237.89 83.8381 236.468 83.5537Z" fill="white"/>
<path d="M210.589 124.03C210.826 124.646 210.068 125.926 205.944 128.675C204.759 128.438 203.764 127.774 203.575 126.921C203.29 125.499 205.328 124.314 206.229 123.888C207.888 123.129 210.257 123.177 210.589 124.03Z" fill="white"/>
<path d="M127.219 143.557C124.66 144.126 120.157 145.216 118.072 148.913C116.697 151.33 116.982 153.89 117.077 154.79C117.55 158.819 120.347 162.184 123.522 163.653C127.409 165.407 131.438 164.08 133.476 163.369C151.202 157.255 160.065 154.222 163.667 152.42C174.094 147.159 185.706 141.235 198.93 130.239C202.342 127.395 205.044 124.883 206.94 123.082C207.698 123.509 209.404 124.314 211.443 124.077C213.101 123.888 214.192 123.13 215.803 121.992C216.94 121.186 218.268 120.238 219.452 118.485C220.59 116.826 220.969 115.357 221.301 114.124C221.633 112.75 222.296 110.285 221.443 109.764C220.827 109.385 220.163 110.427 218.505 110.475C218.362 110.475 216.324 110.475 215.424 109.195C214.571 108.01 215.471 106.92 214.713 105.972C213.907 104.929 211.822 105.024 210.495 105.403C207.414 106.351 205.945 109.764 204.997 111.565C202.39 116.731 198.646 119.527 191.678 124.788C186.275 128.864 181.441 130.76 174.947 133.367C172.388 134.41 167.506 136.306 161.06 137.87C150.207 140.429 141.628 140.334 127.219 143.557Z" fill="white"/>
<path d="M119.446 148.439C124.328 143.557 132.006 143.368 138.452 142.467C145.988 141.424 153.524 140.287 160.918 138.533C174.047 135.5 187.081 130.428 197.366 121.518C200.067 119.148 202.579 116.541 204.665 113.555C206.561 110.854 210.163 102.891 214.618 106.683C215.329 107.252 216.324 106.256 215.613 105.688C213.907 104.218 211.632 104.124 209.641 105.119C206.845 106.541 205.565 109.669 203.907 112.181C199.593 118.722 193.053 123.746 186.323 127.585C172.151 135.642 155.847 138.533 139.922 140.856C132.717 141.898 123.996 141.993 118.498 147.444C117.787 148.06 118.783 149.055 119.446 148.439Z" fill="white"/>
<path d="M118.403 146.733C115.228 152.136 115.844 159.293 121.152 163.132C127.504 167.729 136.414 163.369 142.907 161.141C158.216 155.833 172.814 148.629 186.37 139.718C193.906 134.789 201.063 129.291 207.84 123.366C208.551 122.75 207.508 121.755 206.845 122.371C185.564 140.95 159.733 155.643 132.338 162.99C127.646 164.269 122.764 163.985 119.731 159.719C117.076 156.07 117.408 151.235 119.636 147.491C120.11 146.685 118.877 145.974 118.403 146.733Z" fill="white"/>
<path d="M220.542 108.768C220.779 109.859 221.016 111.043 220.922 112.181C220.732 113.745 219.974 114.266 219.405 115.546C219.168 116.115 219.121 116.684 218.931 117.252C218.552 118.532 218.03 118.816 217.13 119.575C216.135 120.38 215.566 121.328 214.713 122.229C213.338 123.698 212.532 123.224 210.826 123.035C209.594 122.892 208.314 122.703 207.082 122.561C206.181 122.466 206.181 123.888 207.082 123.983C209.12 124.267 212.58 125.452 214.476 124.457C215.234 124.077 215.661 123.366 216.135 122.703C216.751 121.85 217.319 121.139 218.267 120.665C218.741 120.428 218.978 120.617 219.405 120.238C219.926 119.812 220.068 119.101 220.211 118.485C220.542 116.968 221.016 115.973 221.68 114.646C222.675 112.702 222.343 110.522 221.917 108.484C221.727 107.489 220.353 107.868 220.542 108.768Z" fill="white"/>
<path d="M214.713 106.114C213.623 107.726 214.476 110.048 216.182 110.806C218.173 111.707 220.4 110.38 221.396 108.626C221.87 107.821 220.637 107.11 220.163 107.915C219.547 109.005 218.268 110.001 216.988 109.574C215.85 109.242 215.234 107.821 215.945 106.825C216.419 106.067 215.187 105.356 214.713 106.114Z" fill="white"/>
<path d="M215.613 106.778C222.77 99.3365 229.832 91.8005 236.799 84.1697C237.416 83.5062 236.42 82.4635 235.804 83.1744C228.837 90.8052 221.775 98.3412 214.618 105.782C213.954 106.399 214.95 107.441 215.613 106.778Z" fill="white"/>
<path d="M221.348 108.295C228.173 100.427 234.951 92.5591 241.776 84.6913C242.392 83.9804 241.349 82.9851 240.781 83.696C233.956 91.5638 227.178 99.4316 220.353 107.299C219.737 108.01 220.732 109.006 221.348 108.295Z" fill="white"/>
<path d="M210.021 123.84C209.12 124.741 208.219 125.689 207.319 126.589C207.035 126.874 206.608 127.49 206.276 127.68C205.091 128.296 204.475 127.111 204.049 126.352C203.575 125.547 202.342 126.258 202.816 127.063C203.527 128.248 204.712 129.765 206.276 129.291C207.129 129.054 207.746 128.201 208.314 127.585C209.215 126.684 210.115 125.736 211.016 124.836C211.679 124.172 210.637 123.177 210.021 123.84Z" fill="white"/>
<path d="M241.397 84.5014C244.241 85.7811 247.701 85.0228 249.17 82.0842C249.881 80.6623 249.928 78.956 249.407 77.4867C248.506 75.1169 245.236 73.0315 248.127 70.5669C248.838 69.9507 247.796 68.9554 247.132 69.5716C245.473 70.9935 244.999 73.1737 246.089 75.0695C247.132 76.918 248.791 77.9607 248.269 80.3779C247.701 83.2217 244.667 84.4066 242.155 83.2691C241.255 82.8899 240.544 84.1222 241.397 84.5014Z" fill="white"/>
<path d="M236.705 82.9374C236.989 80.852 237.747 79.4775 239.596 78.4347C240.544 77.9134 241.539 77.4868 242.392 76.8233C244.146 75.4014 244.667 72.7946 246.753 71.7519C247.558 71.3253 246.848 70.1404 246.042 70.5196C244.857 71.0883 244.146 71.9888 243.482 73.1264C242.44 74.7852 241.492 75.8753 239.738 76.7759C236.894 78.2452 235.709 79.7144 235.283 82.9374C235.188 83.8379 236.61 83.8379 236.705 82.9374Z" fill="white"/>
<path d="M236.468 84.312C237.795 83.7906 239.169 83.9802 240.307 84.8333C241.018 85.4021 241.729 84.1698 241.018 83.601C239.596 82.5109 237.7 82.2739 236.041 82.9375C235.235 83.2692 235.615 84.6437 236.468 84.312Z" fill="white"/>
<path d="M241.16 77.7713C243.008 77.1552 244.904 77.1078 246.8 77.5818C247.701 77.8187 248.08 76.4442 247.179 76.2073C245.046 75.6859 242.866 75.7333 240.781 76.3969C239.928 76.6812 240.307 78.0557 241.16 77.7713Z" fill="#5222D0"/>
<path d="M240.354 77.7713C243.814 76.302 244.857 72.2733 248.08 70.4722C247.795 70.0931 247.511 69.7139 247.227 69.3347C244.762 71.5624 246.942 74.5957 247.558 77.0603C247.89 76.7759 248.269 76.539 248.601 76.2546C246.8 75.4962 244.999 75.1645 243.056 75.3067C243.245 75.6858 243.482 76.0176 243.672 76.3968C244.335 75.1171 245.141 73.9796 246.042 72.8421C245.662 72.6051 245.236 72.3681 244.857 72.1311C244.478 73.1264 244.004 74.3587 244.193 75.4015C244.241 75.6858 244.572 75.9228 244.857 75.9228C245.994 75.8754 246.279 74.3113 246.658 73.4582C246.231 73.316 245.757 73.2212 245.331 73.079C245.426 73.79 245.662 74.6431 245.568 75.4015C245.662 75.2119 245.805 74.9749 245.899 74.7853C245.568 74.9749 244.288 74.8327 243.719 74.9749C242.771 75.1645 241.966 75.4962 241.112 75.9702C240.496 76.302 240.781 77.3447 241.492 77.2973C242.677 77.2025 243.861 77.0603 245.046 76.9655C245.947 76.8707 245.947 75.4489 245.046 75.5436C243.861 75.6384 242.677 75.7806 241.492 75.8754C241.634 76.302 241.729 76.7759 241.871 77.2025C242.866 76.6812 243.956 76.302 245.094 76.2546C245.52 76.2072 246.184 76.3968 246.563 76.1124C247.416 75.4962 246.847 74.027 246.753 73.1264C246.658 72.5103 245.757 72.0363 245.426 72.7473C245.378 72.8895 244.62 74.5009 244.857 74.5009C245.094 74.6905 245.331 74.8327 245.52 75.0223C245.378 74.3113 245.947 73.1264 246.184 72.5103C246.421 71.8467 245.426 71.278 244.999 71.7993C244.004 72.9842 243.15 74.2639 242.392 75.6384C242.155 76.065 242.44 76.7759 243.008 76.7285C244.715 76.5864 246.279 76.8233 247.843 77.4869C248.411 77.7239 249.075 77.3447 248.885 76.6812C248.411 74.7853 246.326 71.9889 248.175 70.3301C248.791 69.7613 247.985 68.8134 247.321 69.1925C244.146 70.9936 243.008 75.0223 239.596 76.4916C238.79 76.9181 239.548 78.103 240.354 77.7713Z" fill="#282828"/>
<path d="M247.274 69.003C245.283 70.2353 244.051 72.0838 242.582 73.8375C241.681 74.9276 240.686 75.5911 239.691 76.539C239.312 76.8708 238.98 77.0604 238.98 77.5818C238.98 77.6765 239.027 77.8187 239.169 77.8661C242.155 79.1458 245.473 75.7333 248.412 78.1505C248.601 78.2927 248.838 78.2927 248.98 78.0557C249.833 76.8234 247.938 75.6385 247.227 74.8802C246.99 74.6432 246.516 74.8802 246.611 75.2119C246.753 75.6859 246.705 75.6385 247.037 76.0177C247.321 76.3968 247.938 76.0177 247.653 75.6385C247.558 75.4015 247.416 75.2119 247.321 74.975C247.132 75.0698 246.942 75.2119 246.705 75.3067C247.037 75.6385 248.791 77.013 248.364 77.6292C248.554 77.5818 248.743 77.5818 248.933 77.5344C247.938 76.7286 246.8 76.3495 245.473 76.3968C244.715 76.4442 243.956 76.5864 243.198 76.7286C242.582 76.8708 242.013 77.013 241.397 77.0604C240.733 77.1552 239.928 77.5344 240.449 76.6338C240.733 76.1599 241.587 75.7333 241.966 75.3541C242.534 74.7854 243.056 74.1692 243.53 73.5057C244.762 71.989 245.9 70.4723 247.558 69.4296C248.032 69.3822 247.653 68.766 247.274 69.003Z" fill="#282828"/>
<path d="M239.975 78.103C241.397 78.2926 242.771 77.8187 244.193 77.6291C245.378 77.4869 246.326 77.6765 247.416 78.0556C248.032 78.2926 248.412 78.4348 249.075 78.34C249.312 78.2926 249.454 78.1504 249.407 77.9135C249.312 77.2973 249.17 76.9655 248.838 76.4442C248.601 76.065 247.985 76.4442 248.222 76.8233C248.554 77.2025 248.696 77.6291 248.743 78.103C248.838 77.9608 248.98 77.8187 249.075 77.6765C247.748 77.8187 246.421 76.8707 245.046 76.8707C243.435 76.9181 241.776 77.6765 240.165 77.4395C239.691 77.3447 239.501 78.0082 239.975 78.103Z" fill="#282828"/>
<path d="M246.705 70.2353C246.942 69.9035 247.227 69.6191 247.606 69.4295C247.701 69.3821 248.032 69.1452 248.127 69.24C248.269 69.3348 247.89 69.6191 247.795 69.6665C247.227 70.1405 246.847 70.7566 246.563 71.4202C246.373 71.8468 247.084 72.0363 247.227 71.6098C247.511 70.9462 247.985 70.5197 248.506 69.9983C248.838 69.7139 249.028 69.2874 248.696 68.8608C247.985 67.9129 246.61 69.1452 246.136 69.7613C245.9 70.0931 246.421 70.6145 246.705 70.2353Z" fill="#282828"/>
<path d="M248.317 68.6711C247.511 69.1925 246.942 69.9982 246.705 70.9461C246.61 71.3727 247.274 71.5623 247.369 71.1357C247.558 70.3774 247.985 69.7612 248.649 69.2873C249.075 69.0029 248.696 68.3867 248.317 68.6711Z" fill="#282828"/>
<path d="M118.972 148.344C120.489 145.358 125.987 144.221 129.02 143.842C129.921 143.699 129.542 142.325 128.641 142.467C125.229 142.941 119.494 144.268 117.74 147.633C117.361 148.439 118.593 149.197 118.972 148.344Z" fill="white"/>
<path opacity="0.13" d="M117.361 155.217C121.627 154.932 127.835 154.364 135.182 152.942C156.226 148.913 171.203 141.093 180.35 136.258C187.934 132.23 197.982 126.21 209.025 117.537C213.86 115.973 216.846 113.84 218.741 112.134C220.021 110.996 220.969 109.859 221.443 110.096C222.201 110.522 221.017 114.456 219.405 117.3C217.983 119.859 216.324 121.328 215.803 121.802C214.476 122.94 213.717 123.746 212.438 124.077C210.068 124.694 207.935 123.414 207.224 122.94C205.471 124.314 202.911 126.352 199.736 128.77C186.939 138.486 180.493 143.368 172.009 148.013C164.188 152.278 157.648 154.838 144.898 159.767C143.713 160.241 142.149 160.762 139.021 161.805C130.679 164.601 128.689 164.933 126.366 164.506C125.418 164.317 123.096 163.89 120.963 162.042C118.167 159.53 117.55 156.307 117.361 155.217Z" fill="#3D3D3D"/>
<path opacity="0.19" d="M154.946 155.548C154.851 155.406 155.657 154.743 173.431 143.462C196.844 128.58 195.185 129.907 197.65 128.106C207.888 120.523 212.438 115.404 214.807 116.92C216.419 117.963 216.703 121.755 214.95 123.414C213.433 124.883 210.257 124.741 207.414 122.655C201.679 127.774 193.147 134.741 181.914 141.803C168.643 150.003 155.278 156.117 154.946 155.548Z" fill="#3D3D3D"/>
</svg>
