<svg width="465" height="453" viewBox="0 0 465 453" fill="none" xmlns="http://www.w3.org/2000/svg">
<path d="M216.401 237.032C216.401 407.936 217.135 400.383 214.687 407.208C213.092 412.142 210.143 416.527 206.178 419.866C201.759 423.84 196.481 426.736 190.757 428.329C189.45 428.633 119.806 441.008 49.1089 450.899C22.5123 454.624 4.91089 453.302 6.97919 418.21C6.99387 417.965 0.30923 95.3338 0.296992 95.0866C-0.434582 71.1551 0.185663 47.2014 2.15479 23.3399C3.47654 8.62196 15.5927 2.74751 30.0854 0.595988C42.1207 -1.18593 175.207 22.3511 190.803 28.8864C196.358 31.5148 201.021 35.7124 204.217 40.9608C216.886 59.3038 213.237 84.5983 213.437 100.54C213.763 126.241 213.814 96.8367 216.811 237.002C216.676 237.03 216.537 237.04 216.401 237.032ZM11.2015 402.969C11.3166 429.592 6.26446 450.359 36.5938 447.888C74.2099 444.827 152.064 429.596 179.25 427.132C198.541 425.386 214.428 415.124 214.253 396.067C212.872 242.684 214.742 276.04 212.03 143.078C211.697 126.703 211.244 110.326 210.942 93.9509C210.561 73.1455 213.331 58.1975 201.974 41.4798C194.19 30.027 182.408 27.0506 163.893 24.2382C87.9733 12.7047 47.5277 3.20033 33.4608 4.44131C23.4253 5.32737 6.62672 11.5592 5.80185 20.9118C0.906466 75.9457 11.1868 399.118 11.2015 402.969Z" fill="white"/>
<path d="M247.972 236.292C252.649 69.0309 251.227 128.135 251.123 80.1753C251.082 61.7001 255.256 40.8311 270.762 30.8249C284.54 21.9374 423.026 -0.995125 434.757 0.595873C446.394 2.18206 460.558 7.85825 462.102 19.4432C462.981 26.0519 463.852 32.6827 464.086 39.3355C466.334 103.017 463.762 94.3205 463.472 113.745C463.228 129.655 463.95 188.568 462.738 240.971C461.612 289.435 458.469 371.096 457.647 403.471C457.402 413.398 459.558 422.475 456.246 436.727C453.72 447.587 445.292 452.796 434.59 452.411C418.355 451.485 402.192 449.579 386.187 446.705C322.524 436.645 375.892 445.551 305.596 433.625C274.237 428.301 273.611 429.064 265.974 424.89C261.475 422.706 257.577 419.461 254.613 415.432C251.651 411.404 249.714 406.714 248.967 401.77C248.561 399.077 248.684 410.99 248.684 236.32C248.427 236.308 248.206 236.308 247.972 236.292ZM459.269 228.11C459.173 228.114 459.079 228.108 458.983 228.096C459.203 212.776 459.632 197.471 459.599 182.151C459.326 54.969 462.822 118.511 459.538 24.2064C459.507 21.6275 458.81 19.1003 457.514 16.8702C456.219 14.64 454.369 12.7826 452.146 11.4784C442.732 5.38241 431.41 2.9541 420.326 4.65423C401.34 6.85715 376.2 11.7648 349.129 16.4031C298.977 25.0141 293.372 24.576 282.239 28.4923C269.511 32.9667 265.783 34.6115 258.864 48.9819C252.624 61.9546 254.195 73.591 253.663 106.875C250.53 302.689 251.645 162.868 250.793 396.161C250.609 400.391 251.456 404.603 253.263 408.434C255.07 412.264 257.781 415.599 261.165 418.147C267.188 422.979 274.456 426.006 282.129 426.879C318.173 430.704 293.44 428.76 394.968 443.789C408.261 446.071 421.684 447.515 435.159 448.109C444.892 448.315 452.199 441.635 452.892 435.073C454.891 416.115 453.641 406.017 453.757 388.483C453.822 380.247 452.637 422.353 459.269 228.11Z" fill="white"/>
<path d="M27.5857 406.814C26.5136 392.769 25.0303 360.255 22.9987 329.427C19.8902 282.243 20.8594 260.245 19.0824 111.682C18.7422 83.5461 21.0136 61.8424 21.5081 53.3342C51.8276 59.943 104.304 62.9953 196.028 73.6501C199.528 74.0564 199.436 74.1543 199.638 77.7328C202.867 134.598 202.086 191.532 202.728 248.445C203.169 287.414 203.783 377.546 203.783 383.047C173.382 387.057 178.897 385.909 143.814 389.825C41.1924 401.278 37.6433 407.375 27.5857 406.814ZM190.112 271.039L189.733 265.884C193.201 267.002 196.652 268.1 200.277 269.264C200.277 269.02 199.35 126.469 197.376 78.6776C197.315 77.1503 196.858 76.6583 195.377 76.5188C132.961 70.6443 60.3578 64.3586 24.7586 56.8638C24.5138 57.8722 23.312 90.8426 23.3243 103.992C23.3438 125.568 24.9471 159.645 24.9471 291.485C26.0755 291.808 24.9471 291.891 30.0065 288.852C34.8015 285.97 39.6136 283.124 44.4062 280.254C47.669 281.011 50.922 281.743 54.197 282.5C44.6594 286.223 35.5505 290.963 27.0276 296.638C26.5301 296.891 26.1261 297.294 25.8744 297.794C25.6226 298.292 25.5362 298.857 25.6275 299.408C26.2076 309.101 26.6531 318.795 27.1892 328.472C31.7345 410.51 30.9562 393.075 30.9562 402.584C132.565 384.655 128.568 388.514 201.021 380.343C201.021 335.664 201.313 370.962 200.374 275.971C200.362 274.71 200.203 273.917 198.734 273.56C195.834 272.848 192.978 271.906 190.112 271.039Z" fill="white"/>
<path d="M98.631 421.804C93.9804 419.212 94.9595 408.122 105.866 407.208C114.015 406.529 122.18 405.966 130.343 405.348C138.739 404.717 140.078 413.653 134.127 417.566C128.177 421.476 103.287 424.395 98.631 421.804ZM111.32 419.96C118.435 419.002 126.885 418.331 133.386 415.64C134.053 415.422 134.654 415.036 135.133 414.522C135.611 414.008 135.952 413.382 136.123 412.701C136.294 412.02 136.29 411.306 136.111 410.626C135.932 409.947 135.584 409.325 135.099 408.817C132.769 406.443 131.795 407.218 105.727 409.227C98.0876 409.815 95.1626 419.459 102.765 419.944C105.284 420.105 107.805 419.96 111.32 419.96Z" fill="white"/>
<path d="M106.794 39.6367C106.794 39.1472 106.828 31.8481 114.117 31.8481C124.557 31.8481 127.545 50.9695 116.656 50.9695C114.48 50.9671 106.794 50.3502 106.794 39.6367ZM114.986 34.2224C113.387 34.3789 111.903 35.1211 110.818 36.3064C109.734 37.4917 109.126 39.0362 109.112 40.6427C109.112 40.8189 109.264 48.8718 116.342 48.8718C124.97 48.8718 122.175 34.2224 114.986 34.2224Z" fill="white"/>
<path d="M437.376 406.784C436.222 406.867 435.061 406.857 433.908 406.753C412.614 403.065 391.417 398.825 370.024 395.798C339.976 391.543 323.016 390.902 265.46 383.584C261.252 383.047 261.273 382.906 261.285 378.635C261.509 294.11 263.439 76.9274 265.917 74.1419C266.652 73.3219 268.63 73.623 270.064 73.4639C349.32 64.6277 354.397 65.0292 417.764 57.6861C424.825 56.8686 431.826 55.4832 438.838 54.3279C440.35 54.0831 441.831 53.667 443.534 53.2876C443.66 55.0548 443.738 56.4696 443.881 57.8746C447.536 94 445.243 130.172 444.952 166.329C444.217 257.138 446.112 267.712 440.997 346.04C439.236 373.083 438.165 400.866 437.376 406.784ZM265.548 294.679C264.834 295.518 264.422 296.572 264.381 297.672C264.367 301.29 263.833 372.112 264.018 375.786C272.355 367.559 280.173 359.3 290.37 353.83C287.012 347.611 283.233 342.528 286.415 328.486C294.062 294.743 311.599 264.846 310.8 264.446C310.796 264.946 289.223 268.342 265.546 294.673L265.548 294.679ZM349.194 168.378C348.672 168.059 348.062 167.911 347.452 167.955C346.842 167.999 346.261 168.232 345.79 168.623C342.487 170.808 339.109 171.034 336.947 168.75C336.215 168.057 335.33 167.55 334.361 167.27C333.394 166.99 332.372 166.946 331.385 167.142C332.609 170.813 331.607 172.27 327.695 172.659C327.389 172.753 327.108 172.913 326.871 173.129C326.634 173.344 326.447 173.609 326.324 173.905C325.364 176.353 324.103 179.008 321.294 178.8C319.285 178.743 317.335 179.486 315.873 180.866C315.273 181.29 314.471 181.434 313.855 181.845C313.431 182.129 312.876 182.697 312.895 183.106C313.925 204.698 312.293 220.555 325.849 229.224C329.661 231.405 333.61 233.338 337.671 235.009C339.058 235.657 340.248 236.394 340.225 238.13C340.164 243.158 340.111 248.202 339.909 253.23C339.758 257.089 329.298 259.616 326.404 260.526C329.831 262.56 332.127 266.074 343.613 266.4C350.44 266.566 357.228 265.342 363.568 262.806C366.864 261.515 369.999 259.828 373.198 258.313C372.977 257.505 362.997 254.851 362.748 254.784C362.099 254.645 361.524 254.264 361.145 253.719C360.763 253.175 360.606 252.506 360.7 251.847C360.88 235.466 360.735 240.94 360.998 236.182C353.259 238.782 351.941 238.925 350.171 237.161C351.15 236.626 352.031 236.076 352.976 235.666C355.178 234.707 357.42 233.911 359.564 232.859C372.588 226.466 376.4 218.326 379.635 204.062C382.252 205.322 384.663 206.538 387.329 204.833C387.204 204.676 387.105 204.5 387.027 204.315C385.546 201.683 387.272 201.431 388.934 202.157C389.762 202.267 390.101 203.689 391.725 202.377C398.894 196.58 391.631 186.406 384.663 190.667C384.224 190.956 383.733 191.152 383.215 191.242C382.697 191.33 382.166 191.311 381.658 191.185C381.148 191.061 380.671 190.83 380.255 190.51C379.839 190.19 379.494 189.786 379.241 189.325C378.774 188.244 378.436 187.112 378.234 185.953C373.552 186.457 372.512 185.385 371.625 178.798C368.859 178.798 366.028 178.942 363.633 176.448C360.892 173.592 361.43 170.574 361.757 167.103C357.985 169.736 354.511 171.166 349.192 168.376L349.194 168.378ZM440.291 56.7217C437.219 57.456 434.38 58.391 431.479 58.7876C378.874 65.9764 407.196 62.7455 270.113 76.4403C268.4 76.6116 267.686 77.0229 267.639 78.9932C267.276 93.9829 266.564 108.973 266.362 123.977C266.362 124.222 264.239 287.865 264.551 290.037C265.817 290.743 275.733 273.521 303.275 263.008C323.222 255.394 326.581 258.441 335.885 252.702C336.15 252.481 336.364 252.206 336.513 251.896C336.664 251.586 336.743 251.249 336.751 250.904C336.751 247.308 336.421 243.714 336.594 240.135C336.69 238.177 335.917 237.567 334.326 236.932C329.027 235.272 324.107 232.577 319.856 229.004C319.591 228.83 319.295 228.712 318.983 228.655C318.671 228.6 318.353 228.606 318.045 228.673C315.63 228.981 313.178 228.643 310.936 227.694C308.697 226.744 306.749 225.216 305.293 223.268C303.163 220.115 302.319 216.27 302.93 212.515C303.542 208.761 305.564 205.382 308.581 203.066C309.152 202.501 309.49 201.743 309.529 200.939C309.656 194.965 309.678 188.976 309.67 183.003C309.666 182.699 309.598 182.399 309.472 182.122C309.345 181.845 309.164 181.598 308.936 181.395C304.007 177.934 306.947 175.009 306.733 172.475C306.425 170.501 306.225 168.511 306.133 166.515C306.078 161.249 307.163 156.033 309.315 151.227C307.948 151.232 306.62 150.764 305.558 149.903C304.495 149.042 303.761 147.84 303.483 146.501C302.912 143.284 305.47 141.786 307.612 140.227C303.514 132.377 306.117 126.924 311.081 125.081C310.447 122.825 310.406 120.444 310.963 118.169C311.522 115.893 312.658 113.8 314.263 112.093C315.579 110.151 317.464 108.664 319.66 107.837C321.857 107.01 324.254 106.883 326.526 107.475C328.24 100.964 333.161 98.5992 338.899 97.8429C341.696 97.5983 344.513 97.952 347.162 98.8805C349.812 99.809 352.233 101.291 354.265 103.228C358.016 98.822 361.308 98.2982 366.134 101.208C369.579 103.082 372.327 106.018 373.967 109.58C378.348 106.853 382.044 107.411 385.928 111.327C388.275 113.744 389.756 116.87 390.138 120.217C390.627 123.747 388.626 126.302 386.262 128.965C387.79 128.462 389.436 128.445 390.974 128.916C392.512 129.388 393.866 130.324 394.849 131.597C395.918 132.772 396.514 134.299 396.526 135.887C396.538 137.475 395.963 139.012 394.915 140.203C396.108 140.732 397.169 141.518 398.025 142.504C398.88 143.491 399.508 144.654 399.863 145.91C400.218 147.167 400.291 148.486 400.079 149.774C399.867 151.062 399.374 152.288 398.635 153.364C399.784 154.263 400.64 155.482 401.097 156.868C401.554 158.254 401.591 159.744 401.201 161.15C400.848 162.507 400.006 163.686 398.837 164.459C397.668 165.233 396.255 165.548 394.868 165.343C394.868 174.108 390.431 174.788 390.707 176.113C391.423 179.89 391.029 183.795 389.571 187.352C398.696 189.606 400.13 197.755 392.834 205.445C394.207 207.423 395.066 209.712 395.333 212.107C395.6 214.499 395.266 216.92 394.36 219.152C393.626 221.593 392.022 223.68 389.852 225.02C387.684 226.358 385.099 226.856 382.587 226.417C380.251 225.703 377.981 224.78 375.81 223.66C372.792 227.794 368.996 231.301 364.637 233.983C363.413 234.717 363.921 236.543 364.053 248.5C364.086 251.48 364.021 251.576 366.991 252.267C395.898 259.017 406.021 259.208 440.236 279.347C440.236 262.323 440.854 172.627 441.323 134.152C441.829 93.4126 442.277 97.6275 440.291 56.7217ZM406.978 267.588C403.51 266.092 410.099 268.259 381.997 260.053C375.243 258.08 379.794 260.759 367.827 265.901C358.63 270.188 348.388 271.724 338.338 270.329C323.836 268.024 323.86 260.854 321.661 261.203C318.137 261.764 314.981 262.639 313.372 266.531C308.181 279.081 296.728 300.709 290.205 329.845C289.274 333.222 289.036 336.753 289.505 340.227C289.972 343.698 291.139 347.04 292.932 350.05C300.181 361.899 300.599 367.298 302.765 382.992C303.347 387.206 302.461 380.83 408.856 397.87C414.135 382.939 417.38 367.625 421.607 352.698C416.695 350.499 412.232 347.411 408.444 343.588C396.383 330.991 395.006 311.901 396.75 294.635C397.415 284.807 400.975 275.396 406.978 267.588ZM420.866 348.143C418.498 343.909 417.544 342.758 416.483 340.61C416.214 340.06 416.626 339.174 416.728 338.436C417.405 338.593 418.257 338.544 418.745 338.94C419.685 339.684 420.491 340.586 421.125 341.604C433.853 362.866 431.534 359.374 435.216 367.121C435.72 364.047 434.673 374.984 439.991 286.28C440.054 285.758 439.954 285.227 439.707 284.762C439.459 284.297 439.075 283.92 438.606 283.679C430.265 278.388 421.535 273.741 412.489 269.778C411.989 269.468 411.392 269.362 410.817 269.487C410.243 269.609 409.74 269.952 409.413 270.439C400.718 280.038 399.708 298.369 400.381 311.356C400.538 320.857 403.469 330.106 408.813 337.961C411.604 342.587 415.836 346.167 420.86 348.151L420.866 348.143ZM433.804 402.586C434.812 378.233 434.989 378.745 434.359 377.034C431.836 369.454 428.65 362.113 424.838 355.095C421.276 370.099 418.229 384.648 412.638 398.58C419.661 399.926 426.627 401.231 433.798 402.592L433.804 402.586ZM299.361 384.302C297.817 374.701 297.403 365.15 292.002 356.887C282.294 363.8 273.358 371.737 265.348 380.561C276.907 381.833 288.053 383.061 299.353 384.308L299.361 384.302ZM377.836 147.516C377.275 148.327 376.6 149.054 375.835 149.675C375.266 149.995 374.815 150.491 374.55 151.087C374.285 151.684 374.221 152.35 374.366 152.987C374.595 155.845 373.72 158.683 371.919 160.915C371.093 161.791 370.191 162.592 369.226 163.309C377.359 169.205 383.586 176.108 386.605 185.929C386.949 185.13 387.249 184.312 387.502 183.48C388.086 181.251 388.2 178.925 387.837 176.649C387.472 174.374 386.639 172.199 385.389 170.263C384.991 169.554 384.645 168.818 384.349 168.06C387.488 168.234 388.102 170.914 389.66 172.615C392.341 168.123 392.653 165.027 390.395 161.392C387.674 157.055 384.673 150.833 377.83 147.524L377.836 147.516ZM350.436 166.344C351.68 166.454 352.847 166.657 353.997 166.657C355.119 166.745 356.247 166.571 357.29 166.15C358.332 165.729 359.264 165.072 360.011 164.231C360.757 163.39 361.3 162.387 361.593 161.301C361.887 160.215 361.926 159.076 361.706 157.973C360.933 152.098 358.316 146.611 352.688 144.608C347.062 142.606 343.907 143.835 344.194 150.63C344.223 151.83 344.543 153.006 345.125 154.057C349.963 162.063 353 161.83 350.436 166.344ZM368.214 131.462L368.594 130.943C358.911 122.956 340.037 120.736 338.157 131.677C337.971 133.172 337.941 134.682 338.063 136.184C338.132 137.919 341.514 139.571 342.822 138.455C349.131 133.07 356.665 134.734 357.955 133.868C361.006 131.934 364.62 131.086 368.214 131.462ZM344.7 139.958C345.881 141.644 345.896 141.757 347.852 141.378C355.733 139.845 365.918 149.55 364.447 162.009C365.728 161.5 366.891 160.729 367.858 159.746C368.824 158.763 369.575 157.589 370.065 156.299C370.552 155.01 370.766 153.632 370.691 152.255C370.617 150.878 370.258 149.532 369.634 148.302C365.241 138.276 355.497 134.742 344.7 139.958ZM320.756 151.763C320.448 153.23 320.478 154.748 320.841 156.203C321.205 157.657 321.894 159.01 322.857 160.16C323.817 161.31 325.029 162.227 326.396 162.842C327.762 163.456 329.251 163.753 330.751 163.71C336.064 163.955 339.732 164.05 343.187 160.039C343.517 159.652 343.758 159.196 343.886 158.703C344.017 158.211 344.033 157.696 343.933 157.196C343.835 156.697 343.623 156.226 343.317 155.82C343.009 155.414 342.616 155.083 342.161 154.852C340.305 153.986 338.294 153.502 336.246 153.429C334.2 153.356 332.158 153.696 330.247 154.429C329.449 154.886 328.507 155.022 327.613 154.807C326.72 154.593 325.941 154.045 325.439 153.276C324.46 152.16 323.569 152.302 320.756 151.763ZM381.458 208.931C380.747 213.184 379.474 217.322 377.675 221.241C383.823 224.455 388.863 222.783 391.041 216.835C391.523 215.462 391.698 214.001 391.555 212.553C391.414 211.105 390.96 209.706 390.221 208.451C389.999 208.213 389.724 208.027 389.418 207.913C389.112 207.799 388.781 207.756 388.457 207.788C386.213 208.052 383.992 208.504 381.471 208.931H381.458ZM335.872 137.799C335.128 135.798 334.854 133.651 335.079 131.528C335.303 129.404 336.017 127.361 337.166 125.561C332.668 127.088 328.635 129.742 325.453 133.268C323.944 134.75 322.8 136.561 322.11 138.561C321.421 140.56 321.207 142.693 321.484 144.789C321.492 145.677 321.702 146.552 322.094 147.348C322.488 148.145 323.053 148.843 323.752 149.391C324.209 142.954 326.575 138.492 335.872 137.799ZM341.767 151.195C341.51 149.645 341.612 148.057 342.063 146.552C342.514 145.047 343.303 143.665 344.37 142.511C341.369 141.114 338.026 140.632 334.755 141.125C332.911 141.34 331.136 141.953 329.553 142.922C326.657 145.147 326.337 148.642 328.134 152.678C332.217 148.468 336.929 149.731 341.767 151.195ZM319.493 160.842C319.416 160.67 319.177 160.227 318.971 159.769C318.224 158.448 317.808 156.965 317.759 155.447C317.71 153.93 318.029 152.423 318.688 151.056C319.026 150.529 319.175 149.904 319.114 149.282C319.051 148.66 318.779 148.077 318.343 147.629C317.796 148.152 317.182 148.598 316.515 148.953C314.612 149.644 312.968 150.904 311.805 152.562C310.645 154.22 310.021 156.195 310.021 158.22C309.68 161.607 309.358 164.98 308.98 168.654C312.766 165.84 316.062 163.38 319.481 160.842H319.493ZM309.974 205.51C306.002 210.285 305.201 215.093 307.638 220.123C309.352 223.635 312.619 224.739 316.67 225.181C311.883 219.333 311.273 212.415 309.961 205.51H309.974ZM373.491 147.729C374.632 146.477 375.288 144.861 375.347 143.168C375.405 141.476 374.86 139.819 373.807 138.492C372.459 136.759 370.574 135.522 368.449 134.975C366.324 134.428 364.076 134.6 362.059 135.466C364.68 136.651 367.04 138.345 369.002 140.45C370.962 142.555 372.484 145.03 373.479 147.729H373.491ZM338.245 166.848C340.188 167.225 342.202 166.984 344.003 166.158C345.802 165.332 347.299 163.963 348.28 162.244C347.589 161.51 346.895 160.749 346.138 159.943C344.651 163.507 343.691 164.342 338.238 166.848H338.245Z" fill="white"/>
<path d="M361.753 423.098C348.262 421.105 331.497 422.396 327.771 413.78C327.322 412.905 327.106 411.928 327.145 410.943C327.181 409.96 327.473 409.001 327.991 408.163C328.507 407.324 329.233 406.635 330.094 406.158C330.957 405.682 331.926 405.436 332.911 405.444C336.65 405.407 333.003 405.513 358.714 407.157C369.955 407.879 371.197 418.926 366.485 421.721C364.978 422.394 363.385 422.857 361.753 423.098ZM335.21 407.226C327.793 406.761 327.322 413.248 331.208 415.438C332.425 416.081 333.717 416.575 335.053 416.907C343.956 419.196 353.133 420.23 362.32 419.981C367.001 419.934 366.944 416.77 366.102 413.739C365.704 412.303 363.654 409.537 358.489 409.121C337.529 407.432 336.405 407.447 335.21 407.226Z" fill="white"/>
<path d="M350.877 31.7722C354.869 31.7722 358.689 34.9811 358.269 38.6257C358.024 51.5055 349.286 51.0429 348.968 51.0429C347.299 51.0429 341.565 50.9792 341.565 43.0071C341.563 36.2515 346.679 31.7722 350.877 31.7722ZM348.733 48.8889C354.504 48.8889 355.86 43.504 355.86 40.6157C355.925 39.0068 355.356 37.4368 354.275 36.2437C353.194 35.0507 351.687 34.33 350.079 34.237C342.704 34.237 340.246 48.8889 348.723 48.8889H348.733Z" fill="white"/>
<path d="M65.8637 69.1728C62.3243 68.2524 35.9333 65.9467 35.6641 65.9271C34.2297 65.817 34.5993 72.438 34.5773 111.082C34.5773 114.125 34.5602 114.218 37.539 114.156C46.9186 113.963 56.2957 113.713 65.6874 113.478C68.2086 113.415 68.5831 113.148 68.6026 110.673C68.6989 98.0808 68.7723 85.4874 68.8229 72.8933C68.8229 70.12 68.561 69.8752 65.8637 69.1728ZM38.1705 112.044C38.1705 101.898 36.9834 101.585 42.8823 97.5292C43.4139 97.2094 43.9795 96.95 44.5688 96.7558C44.6689 96.714 44.7803 96.7085 44.8841 96.7403C44.9877 96.7719 45.0771 96.839 45.1366 96.9296C45.8607 98.2042 46.231 99.6492 46.2089 101.115C46.1871 102.581 45.7736 104.014 45.0118 105.266C44.5565 105.824 43.1099 106.072 43.4037 106.072C43.4967 105.567 43.6093 105.063 43.7023 104.559C43.2127 104.699 42.4784 104.699 42.2851 105.031C41.2497 106.87 38.6282 111.557 38.1705 112.044ZM43.7194 111.667C42.4731 111.803 41.2207 111.877 39.9671 111.887C40.4999 110.691 41.1381 109.544 41.8739 108.461C41.8739 108.461 43.7659 111.572 43.7194 111.67V111.667ZM58.0458 110.247C57.8842 110.708 58.6479 110.294 44.7107 111.178C44.6126 111.184 44.5151 111.159 44.4329 111.105C44.3507 111.051 44.2883 110.972 44.2555 110.879C43.7659 109.445 43.5628 109.241 43.9079 108.972C48.6442 105.264 49.3613 102.319 47.1388 95.2651C48.1179 95.0204 48.6075 94.6116 49.4397 95.0204C52.1762 96.3372 55.1134 96.9418 57.5733 94.7364C57.9356 95.5882 58.2538 96.205 58.4716 96.8953C58.9612 98.3908 59.2525 99.9402 59.8277 101.404C60.3088 102.431 60.4902 103.574 60.3509 104.7C60.2113 105.825 59.7569 106.889 59.0395 107.768C58.5857 108.54 58.2505 109.376 58.0458 110.247ZM46.9822 83.6729C47.2002 83.5686 47.4446 83.5323 47.6835 83.5691C47.9223 83.6058 48.1444 83.7137 48.3211 83.8785C48.5361 84.1192 48.8031 84.3076 49.1019 84.4298C49.4007 84.552 49.7234 84.6042 50.0453 84.583C50.3673 84.5618 50.6804 84.4676 50.9605 84.3072C51.2408 84.1471 51.4806 83.925 51.6622 83.6582C52.2349 82.6791 53.6203 82.1896 54.5994 81.4993C55.1208 82.0501 55.4512 82.7232 55.9407 82.8554C56.5045 82.9186 57.0234 83.1921 57.3943 83.6213C57.7651 84.0506 57.9601 84.604 57.9405 85.1709C58.0409 86.9675 58.4765 88.7151 56.7167 89.7113C55.1868 90.5754 54.7585 91.2558 55.2994 93.6276C56.0338 96.8904 51.2779 94.7315 51.2779 94.7315C50.8863 94.7634 51.0576 91.8775 51.0576 91.8775C51.1049 91.7241 51.1212 91.5628 51.1053 91.4031C51.0892 91.2434 51.0415 91.0884 50.9646 90.9474C50.2988 90.1152 50.5509 90.4138 49.7823 89.4666C49.2822 88.5262 48.9063 87.5249 48.6638 86.4877C48.5512 86.243 47.1168 86.079 46.7864 85.5576C46.3164 84.811 46.5392 83.7218 46.9822 83.6729ZM46.336 82.5543C46.2738 81.7629 46.2526 80.9688 46.2724 80.1751C47.2561 80.4809 48.3005 80.5388 49.312 80.3436C50.3237 80.1486 51.2714 79.7064 52.0709 79.0565C52.4795 78.6853 53.0031 78.4656 53.554 78.434C54.1052 78.4024 54.6504 78.5607 55.0987 78.8827C56.2834 79.617 57.7765 78.7604 58.6601 78.8827C59.7151 79.0296 59.0689 81.5311 59.0077 81.4822C58.0515 80.9096 56.9072 80.7399 55.8257 81.0098C55.3113 81.2427 54.7536 81.3647 54.1888 81.3676C53.624 81.3706 53.0651 81.2546 52.5482 81.0269C52.4038 80.9461 46.5073 82.6497 46.336 82.5543ZM63.5677 111.021L60.6305 110.752C60.5608 110.744 60.4936 110.721 60.4341 110.685C60.3743 110.648 60.3237 110.598 60.286 110.539C60.2481 110.48 60.224 110.413 60.2154 110.344C60.2069 110.274 60.214 110.204 60.2364 110.137L61.0246 107.947C61.0517 107.872 61.0974 107.806 61.1576 107.754C61.2176 107.703 61.2898 107.667 61.3675 107.651C61.445 107.636 61.5253 107.64 61.6008 107.665C61.6763 107.689 61.7442 107.732 61.7981 107.79L63.9422 110.238C64.0069 110.306 64.0493 110.392 64.0638 110.485C64.0785 110.578 64.0646 110.673 64.024 110.758C63.9834 110.843 63.9182 110.913 63.8368 110.96C63.7552 111.007 63.6616 111.028 63.5677 111.021ZM65.2077 108.451C63.8199 107.095 62.2068 106.466 62.4026 104.023C62.2025 102.16 61.68 100.346 60.8581 98.6625C60.6379 97.9527 60.4322 97.2453 60.1238 96.2148C65.9763 98.7164 65.2175 101.933 65.2175 108.451H65.2077ZM65.8539 75.0986C65.8025 77.5634 65.428 94.0144 65.1759 97.4338C60.1557 92.23 55.6127 93.3829 55.6862 92.2178C55.7304 91.8245 55.923 91.4631 56.2247 91.2069C56.6504 90.8724 57.0985 90.5672 57.566 90.2939C57.8799 90.1115 58.1543 89.8684 58.3733 89.5789C58.5922 89.2893 58.7513 88.9591 58.8413 88.6074C58.9934 87.3405 58.9363 86.0571 58.6724 84.8086C58.4472 83.69 58.9661 84.0743 59.272 83.012C59.6892 81.5144 59.7304 79.9371 59.3924 78.4197C59.0542 76.9024 58.347 75.4917 57.3335 74.3129C56.56 73.4293 55.5834 74.8025 55.1893 74.0681C55.052 73.7434 54.8279 73.4625 54.5417 73.2567C54.2555 73.0507 53.9181 72.9275 53.5665 72.9006C51.3268 73.0817 51.7992 73.701 50.7296 73.9262C49.846 74.1122 48.9599 73.3387 48.255 73.8625C47.4154 74.4867 47.5036 76.0092 47.0091 76.8414C45.2541 79.8031 45.8293 80.2069 45.8122 81.2472C45.8228 81.9995 45.9948 82.7407 46.3164 83.4208C46.4804 83.7855 45.1122 85.3642 47.6235 86.7007C48.2844 87.0507 48.2281 88.5242 48.6026 89.1484C49.1168 89.8213 49.6753 90.4591 50.2743 91.0576C50.7908 91.7527 50.2278 92.6632 50.1005 93.1063C45.937 93.7586 42.0211 95.5046 38.7531 98.1656C38.452 98.4324 38.2807 69.5571 38.2807 69.5571C38.2788 69.4912 38.2915 69.4257 38.3178 69.3651C38.3441 69.3047 38.3835 69.2509 38.433 69.2072C38.4826 69.1638 38.5411 69.1318 38.6046 69.1136C38.6678 69.0952 38.7345 69.0914 38.7996 69.1018C65.7707 73.2408 65.9787 69.5277 65.8637 75.0986H65.8539Z" fill="white"/>
<path d="M177.013 125.443C175.341 127.475 173.484 129.335 171.655 131.242C170.187 132.772 168.718 131.511 169.873 129.871C171.758 127.361 173.812 124.981 176.019 122.748C176.808 121.644 181.395 119.013 177.013 125.443Z" fill="white"/>
<path d="M180.117 148.99C178.233 148.903 176.361 148.65 174.522 148.233C173.435 147.932 172.128 145.741 174.823 145.741C176.84 145.776 178.849 145.992 180.827 146.388C186.344 146.703 184.939 149.435 180.117 148.99Z" fill="white"/>
<path d="M179.882 137.515C177.551 137.91 175.265 138.533 173.057 139.376C172.127 139.865 171.014 138.751 172.017 137.662C172.29 137.321 172.649 137.059 173.057 136.903C175.344 136.345 177.693 136.03 179.96 135.359C183.981 134.189 182.971 137.231 179.882 137.515Z" fill="white"/>
<path d="M167.476 363.612C167.026 375.763 157.996 380.398 151.699 375.361C148.547 372.467 146.667 368.443 146.469 364.167C146.272 359.892 147.772 355.713 150.644 352.539C157.282 346.179 167.024 351.927 167.476 363.612ZM154.283 363.631C154.158 363.582 154.017 363.535 153.889 363.488C154.031 362.841 154.095 361.656 154.3 361.628C155.873 361.367 157.472 361.301 159.061 361.436C160.478 361.595 160.165 362.905 160.053 363.884C159.722 366.77 162.395 365.817 163.82 365.742C165.112 365.677 165.481 364.985 165.129 363.835C164.307 361.142 162.892 358.911 159.879 358.542C157.77 358.281 155.638 358.27 153.527 358.509C152.388 358.666 151.336 359.209 150.548 360.045C149.76 360.883 149.282 361.964 149.195 363.111C149.038 363.916 149.319 365.491 149.713 365.601C150.92 365.903 152.184 365.893 153.385 365.571C153.811 365.495 153.985 364.322 154.283 363.631Z" fill="#A66DFF"/>
<path d="M82.8841 386.988C78.3665 386.782 74.1038 384.836 70.9881 381.558C67.8722 378.282 66.1448 373.925 66.1672 369.403C66.1896 364.881 67.9603 360.543 71.1085 357.297C74.2566 354.05 78.5384 352.147 83.0579 351.986C85.3269 352.063 87.5584 352.588 89.6238 353.53C91.6891 354.474 93.5475 355.816 95.0916 357.481C96.6359 359.145 97.8354 361.097 98.6213 363.229C99.407 365.358 99.7636 367.622 99.6704 369.891C99.7036 374.382 97.9556 378.702 94.8093 381.907C91.663 385.111 87.3748 386.939 82.8841 386.988ZM97.0807 369.744C96.9985 366.994 96.1088 364.328 94.5225 362.078C92.9362 359.831 90.7233 358.099 88.1597 357.099C85.596 356.098 82.7948 355.876 80.1048 356.457C77.415 357.036 74.9554 358.397 73.0326 360.365C71.1099 362.333 69.8088 364.824 69.2913 367.527C68.774 370.229 69.0632 373.024 70.1231 375.563C71.1829 378.103 72.9667 380.275 75.2518 381.809C77.5371 383.341 80.2229 384.169 82.9747 384.185C84.8488 384.165 86.7007 383.773 88.4239 383.037C90.147 382.298 91.7078 381.23 93.0171 379.887C94.3264 378.547 95.3584 376.96 96.0539 375.221C96.7495 373.479 97.095 371.618 97.0709 369.744H97.0807Z" fill="white"/>
<path d="M138.033 366.244C137.573 379.357 125.031 385.417 116.865 377.83C113.803 374.786 111.972 370.719 111.722 366.409C111.472 362.099 112.822 357.848 115.512 354.47C116.736 352.955 118.312 351.758 120.104 350.989C121.894 350.218 123.847 349.895 125.79 350.048C127.734 350.203 129.611 350.827 131.258 351.87C132.906 352.914 134.274 354.342 135.245 356.033C137.177 359.08 138.148 362.638 138.033 366.244ZM136.048 366.372C136.102 353.889 124.825 348.749 117.844 355.686C115.497 358.262 114.149 361.593 114.045 365.077C113.941 368.561 115.087 371.967 117.276 374.68C118.215 375.91 119.429 376.906 120.821 377.581C122.213 378.258 123.745 378.599 125.293 378.574C126.841 378.55 128.362 378.164 129.733 377.444C131.104 376.726 132.287 375.694 133.186 374.435C134.984 372.126 135.988 369.297 136.048 366.372Z" fill="white"/>
<path d="M433.939 100.655C433.888 103.223 433.556 105.795 433.292 108.36C433.194 109.322 432.866 110.105 431.624 110.269C408.838 113.241 410.861 113.664 405.095 112.632C404.716 112.503 404.375 112.284 404.1 111.993C403.824 111.702 403.624 111.348 403.518 110.962C400.897 85.2614 401.511 92.9154 402.698 69.5571C402.67 68.9196 402.886 68.2953 403.302 67.8119C403.718 67.3282 404.304 67.0219 404.938 66.9552C412.789 65.4498 420.603 63.7732 428.485 62.4955C433.417 61.7024 434.147 62.4318 434.269 67.3909C434.416 73.2555 434.041 95.4316 433.939 100.655ZM429.252 89.5204C429.615 81.6731 429.962 73.9017 430.325 66.0226C422.247 67.222 414.357 68.3871 406.194 69.5864V93.3853C406.933 92.735 407.741 92.1692 408.605 91.6989C411.088 90.6708 410.829 92.7098 409.756 93.4637C407.345 95.1599 405.611 96.8219 406.256 100.317C406.564 103.402 406.6 106.509 406.366 109.601L429.488 106.243C429.488 101.94 429.427 97.9992 429.521 94.0609C429.582 93.4732 429.454 92.8815 429.152 92.3734C428.85 91.8651 428.393 91.4671 427.848 91.2387C425.509 89.9732 425.401 89.0651 429.252 89.5204Z" fill="white"/>
<path d="M374.299 370.06C374.424 366.972 375.456 363.988 377.265 361.481C379.076 358.976 381.585 357.059 384.478 355.97C387.372 354.883 390.521 354.67 393.534 355.362C396.549 356.055 399.29 357.618 401.42 359.859C403.549 362.101 404.969 364.92 405.505 367.965C406.042 371.011 405.668 374.146 404.432 376.979C403.198 379.812 401.154 382.219 398.56 383.898C395.963 385.579 392.93 386.456 389.84 386.421C387.745 386.368 385.679 385.903 383.764 385.052C381.848 384.202 380.121 382.982 378.677 381.462C377.232 379.943 376.104 378.154 375.352 376.198C374.601 374.242 374.244 372.155 374.299 370.06ZM401.503 370.501C401.008 368.893 400.069 367.457 398.795 366.358C397.522 365.261 395.963 364.543 394.299 364.292C391.199 363.833 388.072 363.576 384.937 363.517C383.535 363.468 382.15 363.843 380.967 364.594C379.782 365.346 378.852 366.438 378.301 367.727C376.678 371.154 377.989 371.492 381.298 371.935C384.449 372.359 384.645 372.235 384.606 369.034C384.586 367.443 385.283 366.735 386.703 366.876C388.8 367.084 390.88 367.453 392.961 367.87C394.05 368.088 394.205 368.877 393.954 369.917C393.22 372.946 393.43 373.259 396.506 373.526C400.42 373.868 402.88 373.917 401.503 370.501Z" fill="#D0F500"/>
<path d="M341.751 354.313C343.089 353.42 344.588 352.8 346.167 352.488C347.744 352.178 349.368 352.184 350.944 352.504C352.519 352.824 354.016 353.455 355.346 354.358C356.676 355.262 357.814 356.418 358.695 357.765C360.9 360.981 361.912 364.869 361.551 368.753C361.192 372.636 359.485 376.271 356.725 379.029C355.364 380.424 353.69 381.473 351.84 382.086C349.992 382.7 348.021 382.862 346.098 382.556C344.172 382.25 342.351 381.487 340.782 380.328C339.214 379.172 337.947 377.656 337.086 375.908C335.049 372.371 334.396 368.202 335.259 364.212C336.119 360.22 338.435 356.694 341.751 354.313ZM350.104 354.913C348.205 354.517 346.23 354.687 344.427 355.401C342.622 356.116 341.068 357.344 339.956 358.933C338.01 361.322 336.929 364.298 336.884 367.378C336.839 370.458 337.835 373.462 339.711 375.908C340.519 377.038 341.551 377.991 342.745 378.703C343.938 379.416 345.266 379.875 346.645 380.051C348.023 380.226 349.423 380.116 350.757 379.727C352.091 379.335 353.331 378.674 354.398 377.783C362.336 371.282 360.227 357.036 350.104 354.913Z" fill="white"/>
<path d="M322.885 356.944C324.57 359.99 325.254 363.486 324.839 366.941C324.423 370.396 322.932 373.632 320.574 376.191C314.945 381.772 306.266 379.547 303.536 371.728C297.844 355.445 314.981 344.086 322.885 356.944ZM321.609 359.104C321.127 357.811 320.332 356.659 319.293 355.753C318.255 354.845 317.007 354.213 315.661 353.913C314.314 353.611 312.915 353.652 311.589 354.032C310.263 354.409 309.054 355.113 308.069 356.08C305.927 358.27 304.583 361.118 304.254 364.165C303.926 367.212 304.63 370.282 306.255 372.879C313.537 383.269 327.442 372.3 321.609 359.104Z" fill="white"/>
<path d="M343.628 187.195C343.785 191.101 343.515 195.012 342.822 198.858C341.786 206.1 336.746 209.369 342.791 211.705C345.015 212.564 345.928 214.693 343.232 215.079C342.245 215.14 341.253 214.981 340.335 214.611C339.416 214.242 338.591 213.671 337.92 212.941C337.251 212.211 336.754 211.34 336.464 210.393C336.174 209.445 336.101 208.445 336.25 207.466C336.386 206.526 336.69 205.618 337.147 204.786C339.84 200.38 339.407 195.417 341.041 183.948C341.157 183.142 342.828 176.935 343.628 187.195Z" fill="white"/>
<path d="M357.906 218.23C353.484 226.242 340.386 223.745 342.241 220.278C342.881 219.085 350.646 224.828 357.171 214.683C357.906 213.753 360.982 210.65 357.906 218.23Z" fill="white"/>
<path d="M364.131 180.464C364.227 180.739 364.211 181.04 364.088 181.304C363.968 181.568 363.748 181.774 363.479 181.88C363.207 181.986 362.905 181.983 362.638 181.872C362.369 181.761 362.153 181.551 362.036 181.284C359.668 179.165 357.225 175.584 353.904 177.202C351.889 178.181 350.942 176.161 352.99 175.17C358.024 172.725 363.077 176.891 364.131 180.464Z" fill="white"/>
<path d="M356.345 186.408C357.216 186.528 358.02 186.944 358.624 187.583C359.227 188.221 359.597 189.045 359.672 189.922C359.68 190.812 359.342 191.668 358.726 192.309C358.11 192.951 357.265 193.325 356.376 193.349C352.525 193.308 352.378 186.483 356.345 186.408Z" fill="white"/>
<path d="M335.683 176.413C333.408 176.6 331.293 177.651 329.774 179.351C328.574 181.935 327.585 180.344 328.023 178.232C328.703 174.955 334.279 172.903 337.386 174.213C339.421 174.428 340.915 177.123 335.683 176.413Z" fill="white"/>
<path d="M335.016 190.426C335.075 190.812 335.048 191.205 334.942 191.581C334.834 191.956 334.649 192.303 334.396 192.601C334.143 192.896 333.829 193.137 333.476 193.302C333.123 193.468 332.739 193.555 332.35 193.559C331.96 193.565 331.573 193.486 331.216 193.329C330.859 193.172 330.541 192.939 330.281 192.648C330.022 192.358 329.827 192.015 329.712 191.642C329.596 191.271 329.561 190.877 329.608 190.49C329.614 185.642 335.038 186.08 335.016 190.426Z" fill="white"/>
<path d="M125.158 215.376C123.11 215.74 121 215.478 119.101 214.632C117.202 213.783 115.601 212.384 114.504 210.618C112.559 208.046 111.257 205.047 110.705 201.869C109.75 195.505 115.845 199.154 122.982 200.829C126.101 201.563 129.256 202.12 132.423 202.626C135.182 203.067 136.163 204.325 135.167 206.93C134.181 208.957 132.781 210.758 131.057 212.213C129.333 213.667 127.324 214.744 125.158 215.376ZM114.55 202.579C114.828 204.501 115.656 206.298 116.934 207.758C118.213 209.216 119.887 210.273 121.754 210.801C123.256 210.971 124.776 210.71 126.136 210.053C127.497 209.394 128.644 208.364 129.444 207.081C124.515 205.59 119.499 204.074 114.55 202.579Z" fill="white"/>
<path d="M134.394 195.107C131.667 196.868 129.374 195.921 131.701 192.792C132.617 191.452 133.194 189.91 133.383 188.299C133.573 186.687 133.368 185.054 132.788 183.539C129.381 172.035 125.2 159.796 124.987 158.367C124.909 157.863 125.19 156.964 125.538 156.822C125.827 156.761 126.127 156.775 126.408 156.863C126.69 156.951 126.944 157.111 127.146 157.327C130.792 165.486 133.979 173.842 136.692 182.357C137.678 184.458 137.986 186.814 137.575 189.098C137.163 191.383 136.051 193.482 134.394 195.107Z" fill="white"/>
<path d="M145.506 159.47C145.837 162.434 144.077 161.6 143.362 160.652C142.963 160.124 138.082 156.555 135.559 157.595C133.811 158.494 132.044 156.746 133.794 154.758C137.793 150.218 145.095 155.799 145.506 159.47Z" fill="white"/>
<path d="M114.318 176.839C111.885 176.839 110.661 174.233 110.661 172.434C110.661 170.419 111.336 167.509 113.4 167.509C118.993 167.519 119.619 176.839 114.318 176.839Z" fill="white"/>
<path d="M140.114 175.373C135.789 175.292 135.603 167.355 139.737 166.909C144.204 166.429 144.652 175.461 140.114 175.373Z" fill="white"/>
<path d="M114.676 157.155C113.187 157.189 111.732 157.604 110.449 158.36C109.166 159.116 108.099 160.187 107.347 161.473C106.008 164.026 105.144 161.157 105.267 160.826C105.422 159.328 106.081 157.928 107.137 156.854C108.254 155.733 109.658 154.941 111.195 154.563C112.732 154.185 114.343 154.235 115.853 154.71C118.616 155.309 118.553 157.138 114.676 157.155Z" fill="white"/>
<path d="M85.912 374.819C82.6174 374.819 79.3033 374.841 75.9646 374.819C75.5373 374.858 75.1063 374.809 74.6998 374.67C74.293 374.533 73.9202 374.311 73.605 374.019C73.2897 373.728 73.0394 373.373 72.8703 372.979C72.7012 372.585 72.6172 372.159 72.6235 371.731C72.4791 369.983 72.4669 368.2 72.4669 366.45C72.4336 366.068 72.4809 365.683 72.6058 365.32C72.7306 364.957 72.9301 364.624 73.1914 364.345C73.4529 364.063 73.7703 363.841 74.1231 363.69C74.476 363.539 74.8566 363.466 75.2401 363.472C78.6938 363.337 82.145 363.425 85.912 363.425V374.819Z" fill="white"/>
<path d="M93.0352 373.685C91.8701 373.052 90.7491 372.347 89.5521 371.839C89.011 371.541 88.5533 371.113 88.221 370.592C87.8887 370.07 87.6923 369.475 87.6501 368.859C87.6077 368.243 87.7205 367.627 87.9785 367.064C88.2363 366.503 88.631 366.015 89.1262 365.646C90.3501 364.93 91.4907 364.069 93.0425 363.013L93.0352 373.685Z" fill="white"/>
<path d="M127.144 371.51H129.129V374.062C126.939 374.158 124.765 374.254 122.479 374.364V371.953L125.142 371.651C124.559 370.77 124.18 370.154 123.771 369.54C120.239 364.243 120.834 365.868 121.813 363.723C122.271 364.118 122.995 364.418 123.154 364.906C123.575 366.201 124.146 367.333 125.629 367.353C127.205 367.386 127.587 366.105 127.976 364.846C128.133 364.357 128.711 364.012 129.112 363.623C130.052 365.354 130.759 364.204 127.962 369.138C127.585 369.801 127.078 370.399 126.637 371.029C126.797 371.194 126.963 371.353 127.144 371.51Z" fill="white"/>
<path d="M127.332 360.761C127.429 361.948 127.408 363.141 127.269 364.322C127.127 365.016 126.324 365.583 125.834 366.197C125.188 365.646 124.045 365.14 123.977 364.528C123.682 361.911 123.571 359.278 123.644 356.647C123.661 356.08 124.868 355.04 125.33 355.133C125.742 355.258 126.119 355.474 126.432 355.77C126.744 356.066 126.982 356.431 127.127 356.835C127.298 358.134 127.325 359.447 127.208 360.751L127.332 360.761Z" fill="white"/>
<path d="M412.314 91.633C410.652 90.6074 412.19 85.646 412.457 81.0272C412.855 74.1418 421.189 72.9498 422.684 77.7473C423.769 81.2108 424.814 84.6865 425.727 88.1989C425.807 88.6479 425.793 89.1078 425.691 89.5519C425.589 89.9959 425.397 90.4147 425.13 90.7837C424.404 91.9041 423.373 92.7942 422.16 93.3497C420.946 93.9049 419.6 94.1025 418.276 93.9192C416.196 93.43 414.189 92.6608 412.314 91.633ZM418.237 78.626C415.584 78.44 415.17 81.0468 415.59 83.7319C415.835 85.2617 416.569 86.5394 418.27 86.696C419.494 86.8062 420.693 85.1344 420.854 83.4161C421.069 80.988 420.685 78.8022 418.237 78.626ZM417.544 91.1875C416.075 89.7997 414.911 88.6811 413.558 87.3887C413.307 89.8217 414.711 91.1924 417.532 91.1924L417.544 91.1875ZM423.737 90.1154C423.492 89.8487 423.21 89.5647 422.959 89.2955C422.225 90.0298 421.507 90.747 420.799 91.4715C421.003 91.6918 421.209 91.9292 421.43 92.1495C422.174 91.4764 422.953 90.7984 423.724 90.1301L423.737 90.1154Z" fill="#D0F500"/>
<path d="M351.02 376.206C348.623 376 346.4 375.812 344.166 375.606V373.214H346.938C346.404 372.265 346.061 371.635 345.714 370.99C342.883 365.767 343.442 367.278 344.423 365.318C344.831 365.758 345.478 366.138 345.647 366.656C346.367 369.02 347.778 369.893 349.349 368.69C349.839 368.312 350.008 367.521 350.436 367.019C350.881 366.587 351.366 366.201 351.888 365.867C352.637 368.006 353.712 366.531 348.292 373.275C349.588 373.481 350.263 373.589 351.179 373.732C351.115 374.489 351.066 375.262 351.02 376.206Z" fill="white"/>
<path d="M349.994 366.023C349.9 367.206 349.208 368.257 347.993 367.947C347.579 367.757 347.215 367.47 346.938 367.107C346.661 366.743 346.475 366.317 346.4 365.866C346.312 363.551 346.455 361.234 346.826 358.948C346.985 358.521 347.248 358.14 347.589 357.838C347.929 357.534 348.341 357.322 348.784 357.214C349.963 357.067 350.426 358.113 350.342 359.278C349.9 365.475 350.094 364.775 349.994 366.023Z" fill="white"/>
<path d="M315.367 360.355C315.147 363.586 314.957 366.44 314.767 369.412C312.466 369.24 310.339 369.095 308.226 368.922C307.94 368.922 307.657 368.863 307.396 368.747C307.135 368.63 306.9 368.459 306.708 368.247C306.517 368.035 306.372 367.784 306.282 367.513C306.194 367.239 306.164 366.952 306.192 366.668C306.064 359.333 306.156 360.355 315.367 360.355Z" fill="white"/>
<path d="M319.84 369.21C318.388 368.059 315.997 367.933 316.103 365.458C316.203 363.127 316.483 362.778 320.328 360.951C320.158 363.782 319.985 366.499 319.84 369.21Z" fill="white"/>
<path d="M417.534 91.1924C414.711 91.1924 413.307 89.8217 413.546 87.3936C414.898 88.6859 416.067 89.7898 417.534 91.1924Z" fill="white"/>
<path d="M423.724 90.1298C422.953 90.8078 422.19 91.4858 421.417 92.1638C421.211 91.9435 421.007 91.7061 420.787 91.4858C421.521 90.7515 422.237 90.0368 422.947 89.3098C423.214 89.5693 423.459 89.8361 423.724 90.1298Z" fill="white"/>
<path d="M141.469 117.434C140.553 116.609 139.579 115.85 138.554 115.165C132.807 111.742 126.013 110.524 119.435 111.738C84.3868 117.857 65.8039 158.834 69.566 192.233C70.3371 199.087 72.6599 190.134 73.3502 181.01C73.8677 170.488 76.3308 160.153 80.6149 150.529C86.4453 138.202 93.8692 127.197 106.494 120.77C117.661 115.081 129.096 112.281 141.469 117.434ZM168.705 214.825C168.264 208.873 166.012 210.003 165.452 211.476C164.607 213.716 163.966 216.015 163.212 218.283C158.726 231.806 147.527 251.981 135.646 261.833C128.169 268.032 120.542 272.056 118.853 274.496C119.57 274.894 119.94 275.797 123.014 274.806C131.662 271.92 139.375 266.763 145.347 259.875C153.392 250.66 159.925 240.226 164.703 228.965C167.056 224.602 168.422 219.774 168.705 214.825ZM129.41 284.175C129.456 284.317 129.481 284.452 129.527 284.609C133.882 284.711 138.169 283.526 141.854 281.203C153.77 274.141 163.687 264.152 170.665 252.185C171.124 251.169 171.24 250.029 170.996 248.94C170.893 248.571 170.704 248.23 170.444 247.949C170.184 247.667 169.861 247.451 169.5 247.318C165.236 246.339 166.247 257.762 138.591 277.915C135.602 280.107 132.469 282.094 129.41 284.175ZM164.23 159.438C162.4 159.896 164.475 157.365 160.929 185.604C160.194 191.342 158.797 196.984 157.854 202.703C157.308 206.016 155.806 209.183 156.386 212.698C156.655 214.32 157.252 214.275 158.356 213.595C159.253 212.951 160.012 212.133 160.59 211.191C161.167 210.248 161.551 209.2 161.719 208.109C166.639 188.794 166.147 181.989 165.405 163.582C165.182 162.159 164.788 160.767 164.23 159.438ZM120.554 253.205C120.554 252.985 120.554 252.746 120.571 252.526C115.811 251.021 111.151 249.213 106.619 247.119C98.6254 243.104 92.1715 236.577 88.2493 228.537C87.2433 226.393 86.7219 224.016 85.7502 221.838C84.7075 219.505 83.2511 219.25 82.4091 222.083C81.9397 224.186 82.2355 226.387 83.2437 228.292C86.8861 236.938 93.2211 244.179 101.308 248.938C109.228 253.786 115.108 254.294 120.554 253.205ZM87.0205 280.991C85.9972 279.72 84.84 278.563 83.5693 277.539C77.7036 274.082 71.1044 272.056 64.3084 271.628C62.1834 271.463 60.0651 272.024 58.3018 273.221C55.3645 275.008 57.5675 276.756 59.3274 276.625C72.4715 275.642 85.0673 284.323 87.0303 280.991H87.0205Z" fill="white"/>
<path d="M164.182 139.045C168.326 150.201 167.381 156.927 168.186 158.935C172.044 168.556 172.643 184.728 172.244 194.157C171.735 205.963 176.65 201.796 178.075 219.958C178.627 227.06 177.922 234.203 175.994 241.063C175.526 244.029 175.444 247.043 175.749 250.03C175.749 251.223 177.681 252.316 183.269 258.337C185.3 260.54 186.387 262.009 189.745 265.878L190.125 271.035C189.647 271.763 189.21 272.518 188.815 273.295C186.794 278.396 183.814 283.061 180.038 287.039C175.234 291.673 169.839 295.655 163.993 298.877C148.237 307.818 134.969 303.964 130.815 304.789C123.154 306.302 112.112 311.624 97.5115 307.12C82.0617 302.353 76.8751 291.536 71.6786 287.416C66.6315 283.416 60.4878 282.58 54.229 282.498C50.9663 281.764 47.6815 281.011 44.4187 280.255C49.2994 273.197 54.0602 276.597 57.6509 266.629C63.0358 251.698 56.4613 246.958 53.6318 186.008C52.8067 176.581 53.3052 167.085 55.1127 157.796C59.45 139.402 68.761 124.349 85.2315 114.372C112.303 97.9748 152.812 108.434 164.182 139.045ZM152.078 181.458C150.959 169.873 150.673 161.284 145.489 154.979C140.528 148.631 134.901 142.835 128.702 137.689C126.546 135.975 122.338 137.708 119.908 138.981C110.054 143.753 101.641 151.052 95.5265 160.134C92.6311 163.969 90.6858 168.436 89.8503 173.168C89.2671 177.788 89.0617 182.447 89.2359 187.1C90.5209 207.309 100.899 218.112 117.419 228.584C118.603 229.304 120.013 229.557 121.374 229.294C124.028 228.733 126.569 227.731 128.893 226.332C145.151 215.295 151.929 201.223 152.078 181.458ZM141.47 117.434C140.554 116.609 139.579 115.851 138.554 115.165C132.808 111.743 126.013 110.525 119.436 111.738C84.387 117.857 65.8042 158.834 69.5663 192.234C70.3373 199.087 72.6601 190.135 73.3504 181.01C73.8679 170.488 76.3311 160.154 80.6151 150.529C86.4455 138.203 93.8694 127.198 106.495 120.77C117.661 115.082 129.097 112.282 141.47 117.434ZM168.705 214.826C168.264 208.876 166.013 210.004 165.452 211.476C164.608 213.716 163.966 216.015 163.212 218.283C158.726 231.807 147.528 251.982 135.647 261.834C128.169 268.032 120.542 272.057 118.853 274.498C119.57 274.894 119.94 275.798 123.014 274.806C131.662 271.92 139.376 266.764 145.347 259.875C153.392 250.66 159.925 240.227 164.703 228.965C167.056 224.602 168.422 219.774 168.705 214.826ZM129.41 284.175C129.456 284.318 129.481 284.452 129.527 284.609C133.882 284.711 138.17 283.526 141.854 281.205C153.771 274.141 163.687 264.153 170.666 252.188C171.124 251.17 171.24 250.03 170.996 248.94C170.894 248.571 170.705 248.231 170.445 247.949C170.184 247.668 169.861 247.451 169.501 247.319C165.237 246.34 166.248 257.762 138.591 277.915C135.602 280.108 132.469 282.094 129.41 284.175ZM164.231 159.439C162.4 159.897 164.475 157.366 160.929 185.605C160.194 191.342 158.797 196.984 157.854 202.704C157.309 206.016 155.806 209.184 156.386 212.698C156.655 214.322 157.252 214.275 158.356 213.596C159.253 212.951 160.012 212.133 160.59 211.191C161.167 210.249 161.551 209.2 161.719 208.109C166.639 188.795 166.147 181.989 165.406 163.583C165.182 162.159 164.788 160.768 164.231 159.439ZM120.554 253.206C120.554 252.985 120.554 252.747 120.571 252.526C115.811 251.021 111.151 249.214 106.619 247.121C98.6256 243.105 92.1715 236.578 88.2495 228.537C87.2435 226.393 86.7221 224.017 85.7504 221.838C84.7077 219.505 83.2513 219.25 82.4093 222.083C81.9398 224.186 82.2357 226.387 83.244 228.292C86.8861 236.939 93.2214 244.18 101.308 248.938C109.229 253.787 115.108 254.295 120.554 253.206ZM87.0207 280.991C85.9972 279.72 84.8403 278.564 83.5695 277.54C77.7038 274.082 71.1046 272.057 64.3086 271.628C62.1836 271.463 60.0652 272.024 58.302 273.221C55.3648 275.008 57.5677 276.756 59.3276 276.628C72.4717 275.643 85.0675 284.326 87.0305 280.991H87.0207Z" fill="#A66DFF"/>
</svg>
